<?xml version="1.0" encoding="UTF-8" standalone="no"?>
<!DOCTYPE svg PUBLIC "-//W3C//DTD SVG 1.1//EN" "http://www.w3.org/Graphics/SVG/1.1/DTD/svg11.dtd">
<!-- 由 Microsoft Visio, SVG Export 生成 bismillah.svg 页-1 -->
<svg xmlns="http://www.w3.org/2000/svg" xmlns:xlink="http://www.w3.org/1999/xlink" xmlns:ev="http://www.w3.org/2001/xml-events"
		xmlns:v="http://schemas.microsoft.com/visio/2003/SVGExtensions/" width="5.6625in" height="1.25416in"
		viewBox="0 0 407.7 90.2993" xml:space="preserve" color-interpolation-filters="sRGB" class="st2">
	<v:documentProperties v:langID="1033" v:viewMarkup="false"/>

	<style type="text/css">
	<![CDATA[
		.st1 {fill:#7d6d2c;stroke:none;stroke-linecap:butt;stroke-width:0.75}
		.st2 {fill:none;fill-rule:evenodd;font-size:12px;overflow:visible;stroke-linecap:square;stroke-miterlimit:3}
	]]>
	</style>

	<g v:mID="0" v:index="1" v:groupContext="foregroundPage">
		<title>页-1</title>
		<v:pageProperties v:drawingScale="0.0393701" v:pageScale="0.0393701" v:drawingUnits="24" v:shadowOffsetX="8.50394"
				v:shadowOffsetY="-8.50394"/>
		<g id="group154-1" transform="translate(0.75,-0.75)" v:mID="154" v:groupContext="group">
			<title>工作表.154</title>
			<g id="shape155-2" v:mID="155" v:groupContext="shape">
				<title>工作表.155</title>
				<path d="M90.9 10.5 L91.2 10.5 C93.8 15.9 95.1 19 95.1 19.8 L94.5 20.1 L93.6 19.8 L93 19.8 C93 21.6 94.3 27.6 96.9
							 37.8 C98.5 44.2 99.3 48.9 99.3 51.9 C99.3 58.1 95.6 62 88.2 63.6 C86 64.4 84.9 65.6 84.9 67.2 C83.5
							 70 82.8 73 82.8 76.2 C82.8 79.6 84.3 81.3 87.3 81.3 L88.2 81.3 C93.2 81.3 100.1 77 108.9 68.4 C118.1
							 60.6 123.7 56.3 125.7 55.5 L125.7 55.2 C125.1 54.2 122.8 52.6 118.8 50.4 C117.8 48.4 117.3 46.7 117.3
							 45.3 C117.3 42.3 120.1 40.6 125.7 40.2 L126 40.2 L128.1 40.5 L128.4 40.5 C134.8 40.5 142.9 41.6 152.7
							 43.8 L152.7 44.7 C152.7 47.9 149.7 50.2 143.7 51.6 C138.1 53.8 134.3 55.7 132.3 57.3 L134.1 61.2 L134.1
							 64.8 L133.5 65.1 C131.7 65.1 129.9 64.1 128.1 62.1 L127.5 62.1 C124.3 68.3 122.7 72.7 122.7 75.3 C122.7
							 76.3 123.2 77.1 124.2 77.7 L126 77.7 C128.4 77.7 132.2 74.7 137.4 68.7 C140.8 66.1 146.6 63.6 154.8
							 61.2 C156.2 60.4 157.9 59 159.9 57 C159.7 55.6 159.5 54.4 159.3 53.4 C154.9 34 152.4 22.1 151.8 17.7
							 L151.8 16.5 C152 14.1 152.4 12.9 153 12.9 C155.6 16.9 156.9 19.9 156.9 21.9 L156.3 22.2 L155.4 21.9
							 L155.4 22.2 L161.4 48.6 L161.7 52.8 L161.7 53.7 C161.5 60.3 158.3 64.5 152.1 66.3 C144.3 68.3 138.2
							 71.9 133.8 77.1 C130.8 79.9 128.5 81.3 126.9 81.3 L126 81.3 C124.2 81.3 122.7 79.2 121.5 75 C121.5 71.6
							 123.5 66.8 127.5 60.6 L127.5 59.7 C125.1 59.9 117 66.1 103.2 78.3 C96.8 83.5 91.6 86.1 87.6 86.1 C83.4
							 86.1 81.3 83.5 81.3 78.3 L81.3 76.5 C81.3 73.7 82.2 70.1 84 65.7 L83.4 65.7 C80.4 65.7 75 69.3 67.2
							 76.5 C65.4 77.7 64 78.3 63 78.3 C59.8 77.7 58.2 76 58.2 73.2 L57.9 71.4 C57.9 67 59.7 62.2 63.3 57 L63.9
							 54.3 C61.3 53.5 59.5 52.3 58.5 50.7 L56.4 46.5 L56.1 45.9 L55.8 45.9 C54.8 46.5 53.9 48.1 53.1 50.7
							 L50.1 54.3 C51.5 54.3 52.7 56.4 53.7 60.6 L53.7 61.8 C53.7 64.2 52.3 65.4 49.5 65.4 C45.5 65.4 42.8
							 63.4 41.4 59.4 L41.4 58.8 C40.8 58.8 39.8 60.8 38.4 64.8 C32.6 70.6 25.4 75.2 16.8 78.6 C9.4 81.2 3.8
							 82.5 0 82.5 L0 81.6 C0 81.2 6.3 78.5 18.9 73.5 C26.3 70.1 32.8 65.7 38.4 60.3 C40.6 54.9 42 52.1 42.6
							 51.9 C48 51.9 52.2 48.7 55.2 42.3 L57 41.4 C59 46.2 60.5 48.6 61.5 48.6 L62.1 48.6 L62.1 48.3 L61.2
							 43.8 C61.2 38 64.2 35.1 70.2 35.1 C71.6 35.1 76.5 36.2 84.9 38.4 C89.1 39.6 91.2 40.4 91.2 40.8 C91.2
							 43.4 89 45.1 84.6 45.9 C77.4 50.5 71 53.4 65.4 54.6 C65.4 56.6 64.2 59.1 61.8 62.1 C60 65.5 59.1 68.1
							 59.1 69.9 L59.1 71.4 C59.1 73.4 59.9 74.4 61.5 74.4 L62.1 74.4 C64.5 74.4 68.2 71.9 73.2 66.9 C74.8
							 64.5 81.6 61.4 93.6 57.6 C96 55.6 97.2 54.4 97.2 54 C96.4 47.4 94.5 38.2 91.5 26.4 L89.4 14.4 C89.4
							 12.6 89.9 11.3 90.9 10.5 ZM31.5 77.7 L32.1 77.7 L32.1 78 C31.5 78.8 27.8 80.6 21 83.4 L20.7 83.4 L20.7
							 82.8 C27.7 79.4 31.3 77.7 31.5 77.7 ZM37.5 39.6 C38.5 39.6 39.3 40 39.9 40.8 L39.9 41.7 L39.6 41.7 L39.6
							 42.3 C37.6 41.5 36.6 40.9 36.6 40.5 L36.6 40.2 L37.5 39.6 ZM39 74.4 C40 74.4 41.2 75.1 42.6 76.5 C42.6
							 77.7 41.8 78.9 40.2 80.1 L36.9 78.3 L36.9 78 C36.9 77 37.6 75.8 39 74.4 ZM42 38.4 L42.6 38.4 L43.2 39
							 L43.2 39.3 C43.2 39.7 42.7 39.9 41.7 39.9 L41.7 41.7 L40.8 42.6 L40.5 42.3 C40.7 39.7 41.2 38.4 42 38.4
							 ZM43.5 57 L43.5 57.6 C44.7 59.8 46.9 60.9 50.1 60.9 L50.4 60.9 L50.4 60.6 C50.4 59.4 48.1 58.2 43.5
							 57 ZM46.2 73.2 L46.5 73.2 C47.1 73.2 48.3 73.8 50.1 75 L50.1 75.6 C49.7 77.8 49.1 78.9 48.3 78.9 C47.3
							 78.9 46.1 78.1 44.7 76.5 C45.1 74.3 45.6 73.2 46.2 73.2 ZM47.7 28.2 L48 28.2 C49.4 28.2 50.1 28.8 50.1
							 30 C49.3 31 48.4 31.5 47.4 31.5 L46.2 31.5 C46.4 29.3 46.9 28.2 47.7 28.2 ZM53.7 80.4 L55.2 80.4 L57
							 82.2 C57 83 55.4 83.5 52.2 83.7 L54.3 90.3 L53.7 90.3 L51.9 84.3 L51.9 83.4 C52.5 82.6 53.3 82.2 54.3
							 82.2 C54.3 81.8 54 81.6 53.4 81.6 L53.4 81 L53.7 80.4 ZM83.4 13.8 L83.4 14.4 C82.8 15.4 77.7 17.9 68.1
							 21.9 C62.9 24.3 59.9 26 59.1 27 L58.5 26.4 C58.7 25.4 67 21.2 83.4 13.8 ZM62.7 42.3 C63.7 47.3 64.6
							 49.8 65.4 49.8 C70 49.8 75.7 47.5 82.5 42.9 C77.9 41.1 73.1 39.9 68.1 39.3 C64.7 39.9 62.9 40.9 62.7
							 42.3 ZM69 81.3 L69.6 81.3 C70.8 81.5 71.4 81.8 71.4 82.2 L71.4 82.5 L69.6 84.9 L69.6 85.2 L70.2 85.2
							 L74.4 84.9 L74.4 85.2 C74.4 86 73 86.5 70.2 86.7 L69.3 86.7 L69 86.1 L69 84.3 L70.2 82.8 L70.2 82.5
							 L69.6 82.5 L68.7 82.5 L68.1 82.2 L69 81.3 ZM74.1 54.3 L74.4 54.3 C76.4 55.7 77.4 57.2 77.4 58.8 L77.1
							 59.4 L76.8 59.4 C76 57.8 75 56.4 73.8 55.2 L74.1 54.3 ZM83.4 24 L84.6 27.6 C84.6 28.6 83.8 29.1 82.2
							 29.1 L80.7 30 C79.7 30 79.2 28.8 79.2 26.4 L79.2 26.1 L79.8 26.1 L80.7 28.2 L81.9 28.2 L81 24.9 L81.3
							 24.6 C82.1 24.6 82.5 25.3 82.5 26.7 L83.4 27.6 L82.5 24.3 L82.8 24 L83.4 24 ZM96 1.5 C96.2 1.5 96.9
							 2.6 98.1 4.8 L98.7 4.8 L101.7 2.1 L102.9 1.5 C104.3 2.3 105 3.1 105 3.9 C103.8 5.3 102.2 6 100.2 6 C100.2
							 6.6 99.5 6.9 98.1 6.9 L97.2 6 C96.2 6.6 95.2 6.9 94.2 6.9 L93.6 6.9 L93 6.3 L93 6 C95 5.6 96 5.2 96
							 4.8 L95.7 2.1 L96 1.5 ZM97.2 63 C99.6 64 100.8 64.6 100.8 64.8 L100.8 66.3 C100.4 67.9 99.9 68.7 99.3
							 68.7 L98.4 68.7 C96.6 67.7 95.7 66.9 95.7 66.3 L97.2 63 ZM100.8 4.8 L101.1 4.8 C102.3 4.6 102.9 4.3
							 102.9 3.9 L102.9 3.6 L102 3.6 L100.8 4.8 ZM104.4 9.9 L104.7 9.9 C106.9 14.5 108 17.2 108 18 L107.4 18.6
							 L106.5 18 L106.5 18.6 C108.7 28 110.2 35.9 111 42.3 C111.6 42.3 112.1 46.1 112.5 53.7 C112.5 55.9 112.1
							 57.6 111.3 58.8 L110.1 58.2 L110.1 56.1 L110.4 55.5 L110.1 55.5 L110.1 53.4 C109.3 47 107.5 36.5 104.7
							 21.9 C104.3 19.3 103.8 18 103.2 18 L103.5 18 L103.5 17.4 L102.6 13.2 C103 11 103.6 9.9 104.4 9.9 ZM117.9
							 76.5 L117.9 76.8 C110.1 81.8 105.5 84.3 104.1 84.3 L103.5 84.3 L103.5 83.7 C105.5 82.1 110.3 79.7 117.9
							 76.5 ZM113.7 24 C114.9 24.8 115.5 26.8 115.5 30 L114.9 30 L113.1 24.3 L113.4 24 L113.7 24 ZM137.7 9
							 C138.3 9 138.6 9.2 138.6 9.6 L138 10.5 L137.7 10.5 L137.4 10.2 C133.2 12.6 128.3 13.8 122.7 13.8 L118.8
							 13.8 C118.8 14.4 118.6 14.7 118.2 14.7 C117 13.1 116.4 11.9 116.4 11.1 C118.8 12.1 120.7 12.6 122.1
							 12.6 C127.1 12.6 132.3 11.4 137.7 9 ZM120.3 45.9 C120.5 46.5 122.7 48.3 126.9 51.3 C128.1 52.3 128.7
							 53.1 128.7 53.7 L143.4 47.4 C143.4 46.4 137 45.7 124.2 45.3 L123.3 45.3 L120.3 45.9 ZM145.8 17.4 L146.1
							 17.7 L146.1 18 C143.5 19.8 137.5 22.1 128.1 24.9 L122.1 27.6 L122.1 29.1 L121.8 29.1 C121.4 29.1 121.2
							 28.8 121.2 28.2 C121.2 26 125.1 24 132.9 22.2 C140.5 19 144.8 17.4 145.8 17.4 ZM128.7 31.2 C129.7 31.2
							 130.4 31.7 130.8 32.7 L130.8 33.3 L129.9 34.5 L128.1 34.5 C127.7 34.5 127.5 34.1 127.5 33.3 C127.9 32.1
							 128.3 31.4 128.7 31.2 ZM145.8 30 C145.8 31 144.5 31.9 141.9 32.7 C140.7 32.1 140.1 30.9 140.1 29.1 L140.1
							 28.5 L140.4 28.2 L141.6 30.6 L142.5 30.6 L141.9 28.2 L141.9 27.6 L142.5 27.6 C143.1 27.8 143.4 28.6
							 143.4 30 L144.3 30 L143.4 27.6 L143.7 27 C144.5 27.2 145.2 28.2 145.8 30 ZM142.5 77.1 C144.5 77.9 145.5
							 78.5 145.5 78.9 C145.5 80.1 144.1 80.7 141.3 80.7 C142.7 84.7 143.4 87.3 143.4 88.5 L142.5 88.5 L140.4
							 81.6 L140.4 80.7 C140.8 79.5 141.2 78.9 141.6 78.9 L141.3 78.6 L141.3 78.3 L142.5 77.1 ZM153 73.2 C154.2
							 73.6 154.8 74 154.8 74.4 L154.8 75 C153.4 76 152.7 76.9 152.7 77.7 L154.8 77.7 L159.3 76.5 C157.7 78.5
							 155.6 79.5 153 79.5 C152.2 79.5 151.6 79.1 151.2 78.3 L152.4 75 L152.1 75 L150.9 75 C151.3 73.8 152
							 73.2 153 73.2 ZM159 3.6 L160.8 6.9 L161.7 6.9 L165 4.5 L166.5 4.5 C167.7 4.5 168.3 4.8 168.3 5.4 L168.3
							 6 C168.3 8 166.5 9 162.9 9 L161.4 9.3 L160.8 9.6 C160.8 8.8 160.6 8.4 160.2 8.4 C159.4 9.2 158.5 9.6
							 157.5 9.6 L156.9 9.6 L156.9 9 L159.6 7.8 C158.8 6 158.4 4.7 158.4 3.9 L158.7 3.6 L159 3.6 ZM185.1 72
							 L185.1 72.3 C185.1 73.5 180.4 75.5 171 78.3 C168.8 79.5 167.7 80.3 167.7 80.7 L165.9 80.4 L162.6 81.6
							 L162.6 81 C162.6 80 167.7 77.8 177.9 74.4 C181.7 72.8 184.1 72 185.1 72 ZM164.1 6.9 L164.7 6.9 L166.2
							 6.9 L166.2 6 L165.6 6 L164.1 6.9 ZM166.8 12.6 C168.8 17 169.8 19.9 169.8 21.3 L168.6 21.3 C171.6 37.5
							 173.1 47.6 173.1 51.6 C172.7 55 172.1 56.7 171.3 56.7 L171 56.1 L171.3 51.9 L166.8 27.6 L167.1 26.4
							 L165 16.5 C165.6 13.9 166.2 12.6 166.8 12.6 ZM200.4 41.4 C202.8 44.4 204 46.4 204 47.4 L204 47.7 C203.4
							 47.7 203.1 47.9 203.1 48.3 C205.3 53.7 206.4 57.2 206.4 58.8 L206.4 59.7 C206 64.5 204.4 66.9 201.6
							 66.9 L200.7 66.9 C197.9 66.9 195.8 65.3 194.4 62.1 L194.4 61.8 L193.8 61.8 C193.8 65 191.6 67.4 187.2
							 69 L184.8 69 C182.2 69 180.4 66.6 179.4 61.8 L180 56.1 C178.6 57.7 177.4 61.7 176.4 68.1 C175.2 69.9
							 174.1 70.9 173.1 71.1 C170.5 71.1 168.6 67.3 167.4 59.7 C167.6 56.9 168 55.5 168.6 55.5 C169 55.5 169.2
							 58 169.2 63 C170.4 65.6 171.7 66.9 173.1 66.9 C174.3 66.9 175.8 63.1 177.6 55.5 C179 51.9 180.4 49.9
							 181.8 49.5 C182.4 50.3 182.7 51.1 182.7 51.9 L181.8 59.4 C182 62.8 183.5 64.5 186.3 64.5 L186.9 64.5
							 C189.9 64.5 191.9 62.9 192.9 59.7 L191.1 47.4 L191.1 46.5 C191.1 44.5 191.4 43.5 192 43.5 C193.8 46.1
							 195.1 50.5 195.9 56.7 C196.9 60.5 198.7 62.4 201.3 62.4 L201.6 62.4 L204.9 61.2 C201.3 52.2 199.5 46.8
							 199.5 45 L199.5 42.9 C199.7 41.9 200 41.4 200.4 41.4 ZM394.8 31.2 C396.2 32.2 396.9 34.6 396.9 38.4
							 C399.7 44.4 401.1 48.5 401.1 50.7 L401.1 52.2 C401.1 56.6 399.4 59.1 396 59.7 C394.4 59.7 392.5 58.6
							 390.3 56.4 L390 56.4 C390 58.4 388.4 59.8 385.2 60.6 L384.6 60.6 C383 60.6 381.8 59.7 381 57.9 C379
							 60.1 375.8 61.2 371.4 61.2 C369.4 61.2 368.1 59.7 367.5 56.7 L367.2 56.7 C358.8 59.3 342.4 62.4 318
							 66 C302 68 288.1 69 276.3 69 C260.3 69 246.7 67.4 235.5 64.2 L234.9 64.2 C234.9 66.8 233.8 68.1 231.6
							 68.1 C229.2 67.5 226.6 66.4 223.8 64.8 C221.4 70.2 215.5 75.3 206.1 80.1 C199.3 84.1 189.5 86.9 176.7
							 88.5 L174.3 88.5 L174.3 87.9 L201.3 78 C210.5 73.4 216.8 69.3 220.2 65.7 C224 58.7 226.8 55.2 228.6
							 55.2 L229.2 55.2 L236.4 59.4 C246 62.8 259.5 64.5 276.9 64.5 L282.3 64.5 C304.3 64.5 331.4 60.9 363.6
							 53.7 C366.2 52.7 368.3 52.2 369.9 52.2 L369.9 52.8 L369.6 53.7 L369.6 54 C369.6 55.6 370.5 56.5 372.3
							 56.7 L374.1 56.7 C376.9 56.7 379.7 55.2 382.5 52.2 C382.9 52.2 383.2 53.1 383.4 54.9 C384.2 55.3 385.1
							 55.5 386.1 55.5 L386.4 55.5 C387.8 55.5 389.4 53.9 391.2 50.7 L391.5 50.7 C391.7 50.7 391.9 51.4 392.1
							 52.8 C393.1 53.8 394.6 54.6 396.6 55.2 C398.4 54.8 399.3 54.3 399.3 53.7 L393.3 35.1 C393.9 32.5 394.4
							 31.2 394.8 31.2 ZM183.6 32.4 L184.2 32.4 C185.6 32.4 186.6 33.4 187.2 35.4 L187.2 36.6 C187.2 36.8 186.4
							 37.1 184.8 37.5 C183.4 40.1 181.5 41.4 179.1 41.4 L179.1 40.5 C181.1 39.7 182.8 38.5 184.2 36.9 L184.2
							 36.6 C183.2 36.6 182.7 36.4 182.7 36 C182.7 33.6 183 32.4 183.6 32.4 ZM203.1 15.9 L203.4 16.2 L203.4
							 16.5 C203.4 17.1 198.6 19.5 189 23.7 C186.8 24.3 184.7 25.6 182.7 27.6 L183 28.2 L182.7 28.5 L181.8
							 27.6 L181.8 26.4 C182.4 25 189.5 21.5 203.1 15.9 ZM185.1 9.9 L186.6 9.9 L187.8 11.4 L187.8 12 C187.2
							 13.2 186.2 13.8 184.8 13.8 L184.2 12.3 C184.4 10.7 184.7 9.9 185.1 9.9 ZM197.7 29.7 C198.7 30.7 199.2
							 31.9 199.2 33.3 C199.2 34.1 197.9 34.7 195.3 35.1 C194.1 34.7 193.5 33.9 193.5 32.7 L193.5 31.5 L193.8
							 31.2 C194.4 32.6 194.9 33.3 195.3 33.3 L195.9 33.3 L195.3 30 L195.9 30 L196.8 32.7 L197.7 32.7 L196.8
							 30 L197.1 29.7 L197.7 29.7 ZM215.1 9.6 L215.7 9.6 C217.1 9.6 217.8 10.1 217.8 11.1 C217.8 13.5 216.2
							 14.7 213 14.7 L208.8 13.8 L208.8 15.3 L208.2 15.3 L207.6 14.7 C207.6 12.9 208.3 11.9 209.7 11.7 L211.5
							 12.6 C212.1 11.6 213.3 10.6 215.1 9.6 ZM209.7 18.6 C212.1 22.8 213.3 25.5 213.3 26.7 L213.3 27.6 L213
							 28.2 L212.4 27.6 L212.1 27.6 L212.1 28.2 C214.5 43 215.7 52.6 215.7 57 L215.7 58.8 C215.7 61.2 215 62.7
							 213.6 63.3 L213.3 63.3 L213.3 62.7 L213.6 57.3 L212.1 47.4 L208.5 24.9 L208.2 23.1 L208.2 21.9 C208.6
							 19.7 209.1 18.6 209.7 18.6 ZM213.3 12.6 L213.3 12.9 L215.7 12.3 L215.7 11.4 L215.4 11.4 C214 11.6 213.3
							 12 213.3 12.6 ZM243 69.6 C241.8 70.4 234.3 73.5 220.5 78.9 L220.2 78.6 L220.2 78.3 C220.6 77.1 228 74
							 242.4 69 L243 69.6 ZM221.7 45.9 C223.1 45.9 223.8 46.7 223.8 48.3 L223.8 48.6 L223.2 49.5 C223.2 48.9
							 222.5 48.5 221.1 48.3 L220.5 47.7 L220.5 47.4 C220.7 46.4 221.1 45.9 221.7 45.9 ZM223.8 33.3 L224.7
							 34.5 L224.7 35.1 C224.7 35.3 224.2 35.4 223.2 35.4 L223.8 36 L226.5 36 L226.5 36.6 C226.5 37.8 224.7
							 38.8 221.1 39.6 L221.1 39.3 L222.3 37.8 L221.1 36.6 L221.1 36 C221.5 34.2 222.4 33.3 223.8 33.3 ZM225.9
							 44.7 L227.1 45.3 L227.1 45.9 C227.1 46.5 226.7 46.8 225.9 46.8 L225.9 48.3 L225.3 49.8 L225 49.8 L225
							 45.9 L225.9 44.7 ZM225.9 60.9 C227.7 62.3 229.5 63 231.3 63 C230.5 61.2 229.4 60.3 228 60.3 C226.6 60.5
							 225.9 60.7 225.9 60.9 ZM232.8 77.1 L233.4 77.1 C235 77.1 235.8 77.9 235.8 79.5 C235.8 80.1 234.6 80.5
							 232.2 80.7 L232.2 81.6 L233.7 87 L233.4 87 C233.2 87 232.3 85 230.7 81 C230.7 80.2 231.2 79.5 232.2
							 78.9 L232.2 78.6 L232.2 78.3 L232.8 77.1 ZM381.9 68.4 L382.5 68.4 L382.5 68.7 C382.5 70.3 381.5 71.1
							 379.5 71.1 L378.6 71.4 L376.8 71.4 L376.5 71.4 C372.3 74.8 369.6 76.5 368.4 76.5 L368.4 76.2 L373.5
							 72.3 L376.8 69.6 L379.8 69.9 L379.8 69.6 L380.4 68.7 L381 69.6 L381.9 68.4 ZM378.9 29.1 C379.9 29.5
							 380.4 30.2 380.4 31.2 L380.4 31.5 C380.4 32.3 379.6 32.9 378 33.3 L377.7 33.3 C377.1 33.3 376.8 32.7
							 376.8 31.5 C377.6 30.1 378.3 29.3 378.9 29.1 ZM378 30.6 L377.7 31.2 L378.3 31.5 L378.6 31.5 L379.2 31.2
							 L378 30.6 ZM378.9 40.8 C380.3 41.4 381 42.4 381 43.8 L380.4 43.8 L380.1 43.8 C380.1 43.6 379.5 43.3
							 378.3 42.9 L378.3 41.4 L378.9 40.8 ZM383.4 40.5 L383.7 41.4 L383.7 42.3 C382.9 42.3 382.5 42.8 382.5
							 43.8 L381.6 43.8 C382 41.6 382.6 40.5 383.4 40.5 ZM406.2 75 C405.4 76.2 397.2 79.3 381.6 84.3 L381.6
							 83.7 C382.8 82.7 391 79.8 406.2 75 ZM393.9 68.1 L394.2 68.1 C395.6 68.1 397 69 398.4 70.8 C398.4 72.2
							 397.8 73.3 396.6 74.1 L396.3 74.1 C395.3 74.1 394.1 73.3 392.7 71.7 L392.7 71.4 L393.9 68.1 Z"
						class="st1"/>
			</g>
		</g>
	</g>
</svg>
