<?xml version="1.0" encoding="UTF-8" standalone="no"?>
<!DOCTYPE svg PUBLIC "-//W3C//DTD SVG 1.1//EN" "http://www.w3.org/Graphics/SVG/1.1/DTD/svg11.dtd">
<!-- 由 Microsoft Visio, SVG Export 生成 edits.svg 页-1 -->
<svg xmlns="http://www.w3.org/2000/svg" xmlns:xlink="http://www.w3.org/1999/xlink" xmlns:ev="http://www.w3.org/2001/xml-events"
		xmlns:v="http://schemas.microsoft.com/visio/2003/SVGExtensions/" width="7.67555in" height="6.12569in"
		viewBox="0 0 552.64 441.05" xml:space="preserve" color-interpolation-filters="sRGB" class="st5">
	<v:documentProperties v:langID="1033" v:viewMarkup="false"/>

	<style type="text/css">
	<![CDATA[
		.st1 {fill:none}
		.st2 {stroke:#7d6d2c;stroke-linecap:round;stroke-linejoin:round;stroke-width:2.39062}
		.st3 {stroke:#7d6d2c;stroke-linecap:round;stroke-linejoin:round;stroke-width:1.79297}
		.st4 {stroke:#7d6d2c;stroke-linecap:round;stroke-linejoin:round;stroke-width:1.19531}
		.st5 {fill:none;fill-rule:evenodd;font-size:12px;overflow:visible;stroke-linecap:square;stroke-miterlimit:3}
	]]>
	</style>

	<g v:mID="0" v:index="1" v:groupContext="foregroundPage">
		<title>页-1</title>
		<v:pageProperties v:drawingScale="0.0393701" v:pageScale="0.0393701" v:drawingUnits="24" v:shadowOffsetX="8.50394"
				v:shadowOffsetY="-8.50394"/>
		<g id="group24-1" transform="translate(1.19531,-1.16575)" v:mID="24" v:groupContext="group">
			<title>工作表.24</title>
			<g id="shape25-2" v:mID="25" v:groupContext="shape" transform="translate(288.825,-172.603)">
				<title>工作表.25</title>
				<path d="M0.6 330.95 C9.16 332.25 17.75 333.43 26.29 334.87 C32.75 335.97 39.21 337.09 45.72 337.8 C47.32 337.97
							 47.89 338.72 47.82 340.22 C47.7 342.61 47.52 345 47.53 347.39 C47.59 359.94 47.46 372.5 47.89 385.04
							 C48.25 395.1 48.16 405.17 48.49 415.22 C48.74 422.99 49.05 430.75 49.01 438.53 C49 439.34 49.01 440.15
							 49.01 441.05 C32.96 439.33 17.22 437.64 1.2 435.92 C1.2 434.85 1.22 433.85 1.19 432.85 C0.71 411.44
							 0.8 390.02 0.45 368.61 C0.25 356.16 0.14 343.7 0 331.25 L0.6 330.95 Z" class="st1"/>
				<path d="M0.6 330.95 C9.16 332.25 17.75 333.43 26.29 334.87 C32.75 335.97 39.21 337.09 45.72 337.8 C47.32 337.97
							 47.89 338.72 47.82 340.22 C47.7 342.61 47.52 345 47.53 347.39 C47.59 359.94 47.46 372.5 47.89 385.04
							 C48.25 395.1 48.16 405.17 48.49 415.22 C48.74 422.99 49.05 430.75 49.01 438.53 C49 439.34 49.01 440.15
							 49.01 441.05 C32.96 439.33 17.22 437.64 1.2 435.92 C1.2 434.85 1.22 433.85 1.19 432.85 C0.71 411.44
							 0.8 390.02 0.45 368.61 C0.25 356.16 0.14 343.7 0 331.25" class="st2"/>
			</g>
			<g id="shape26-5" v:mID="26" v:groupContext="shape" transform="translate(213.448,-173.605)">
				<title>工作表.26</title>
				<path d="M24.58 381.26 C22.83 381.43 22.3 383.66 20.39 383.7 C19.83 383.72 19.79 384.53 19.78 385.15 C19.66 391.59
							 20.13 397.98 21.46 404.63 C20.28 405.57 18.95 406.91 17.37 407.8 C15.67 408.76 15.55 410.08 15.59 411.74
							 C15.74 418.51 15.63 425.3 16 432.06 C16.15 434.94 15.99 437.86 16.35 441.05 C19.21 441.02 21.92 440.58
							 24.57 440.34 C32.63 439.58 40.69 439.07 48.78 439.28 C50.92 439.33 51.55 438.68 51.51 436.54 C51.32
							 425.99 51.41 415.42 51.14 404.87 C50.56 381.36 51.06 357.85 50.87 334.34 C50.87 333.34 50.87 332.33
							 50.87 331.37 C48.44 330.47 46.31 331.44 44.32 331.77 C37.65 332.87 30.95 333.66 24.28 334.66 C16.9 335.77
							 9.55 337.12 2.15 338.15 C0.9 338.33 0.42 339.05 0.43 339.72 C0.51 346.5 0 353.28 0.68 360.04 C0.71 360.3
							 0.87 360.54 0.97 360.79 L24.58 381.26 Z" class="st1"/>
				<path d="M24.58 381.26 C22.83 381.43 22.3 383.66 20.39 383.7 C19.83 383.72 19.79 384.53 19.78 385.15 C19.66 391.59
							 20.13 397.98 21.46 404.63 C20.28 405.57 18.95 406.91 17.37 407.8 C15.67 408.76 15.55 410.08 15.59 411.74
							 C15.74 418.51 15.63 425.3 16 432.06 C16.15 434.94 15.99 437.86 16.35 441.05 C19.21 441.02 21.92 440.58
							 24.57 440.34 C32.63 439.58 40.69 439.07 48.78 439.28 C50.92 439.33 51.55 438.68 51.51 436.54 C51.32
							 425.99 51.41 415.42 51.14 404.87 C50.56 381.36 51.06 357.85 50.87 334.34 C50.87 333.34 50.87 332.33
							 50.87 331.37 C48.44 330.47 46.31 331.44 44.32 331.77 C37.65 332.87 30.95 333.66 24.28 334.66 C16.9 335.77
							 9.55 337.12 2.15 338.15 C0.9 338.33 0.42 339.05 0.43 339.72 C0.51 346.5 0 353.28 0.68 360.04 C0.71 360.3
							 0.87 360.54 0.97 360.79" class="st2"/>
			</g>
			<g id="shape27-8" v:mID="27" v:groupContext="shape" transform="translate(157.203,-158.388)">
				<title>工作表.27</title>
				<path d="M212.9 441.05 C212.9 407.58 212.9 374.11 212.93 340.64 C212.93 338.76 212.6 337.28 211.16 335.81 C208.01
							 332.59 205.06 329.15 202.16 325.69 C197.22 319.8 190.54 317.28 183.32 315.86 C174.12 314.05 164.82 312.89
							 155.53 311.63 C146.85 310.46 138.19 309.12 129.53 307.76 C120.87 306.4 112.3 305.89 103.51 307.35 C93.14
							 309.07 82.61 309.86 72.16 311.06 C66.18 311.75 60.2 312.44 54.23 313.16 C51.23 313.52 48.26 314.01 45.26
							 314.33 C40.51 314.83 36.85 317.66 33.02 320.05 C25.12 324.98 17.31 330.04 9.39 335.1 C5.69 333.39 2.69
							 330.88 0 327.86 C0.67 326 2.42 326.05 3.72 325.39 C12.06 321.16 19.8 315.91 27.24 310.34 C33.89 305.38
							 41.19 303.53 49.14 302.61 C54.43 301.99 59.73 301.34 65 300.39 C70.51 299.39 76.14 299.1 81.72 298.51
							 C88.39 297.81 95.07 297.15 101.74 296.41 C110.88 295.39 120.04 294.04 129.23 295.56 C137.13 296.86 144.96
							 298.58 152.84 299.98 C160.16 301.28 167.54 302.05 174.94 302.82 C180.23 303.36 185.53 302.87 190.8 303.55
							 C192.32 303.75 193.88 303.49 195.27 302.69 L212.9 441.05 Z" class="st1"/>
				<path d="M212.9 441.05 C212.9 407.58 212.9 374.11 212.93 340.64 C212.93 338.76 212.6 337.28 211.16 335.81 C208.01
							 332.59 205.06 329.15 202.16 325.69 C197.22 319.8 190.54 317.28 183.32 315.86 C174.12 314.05 164.82 312.89
							 155.53 311.63 C146.85 310.46 138.19 309.12 129.53 307.76 C120.87 306.4 112.3 305.89 103.51 307.35 C93.14
							 309.07 82.61 309.86 72.16 311.06 C66.18 311.75 60.2 312.44 54.23 313.16 C51.23 313.52 48.26 314.01 45.26
							 314.33 C40.51 314.83 36.85 317.66 33.02 320.05 C25.12 324.98 17.31 330.04 9.39 335.1 C5.69 333.39 2.69
							 330.88 0 327.86 C0.67 326 2.42 326.05 3.72 325.39 C12.06 321.16 19.8 315.91 27.24 310.34 C33.89 305.38
							 41.19 303.53 49.14 302.61 C54.43 301.99 59.73 301.34 65 300.39 C70.51 299.39 76.14 299.1 81.72 298.51
							 C88.39 297.81 95.07 297.15 101.74 296.41 C110.88 295.39 120.04 294.04 129.23 295.56 C137.13 296.86 144.96
							 298.58 152.84 299.98 C160.16 301.28 167.54 302.05 174.94 302.82 C180.23 303.36 185.53 302.87 190.8 303.55
							 C192.32 303.75 193.88 303.49 195.27 302.69" class="st2"/>
			</g>
			<g id="shape28-11" v:mID="28" v:groupContext="shape" transform="translate(122.031,-117.673)">
				<title>工作表.28</title>
				<path d="M288.72 421.55 C285.21 420.44 281.54 420.75 277.95 420.42 C269.11 419.62 260.23 419.12 251.36 418.58 C243.7
							 418.11 236.02 417.83 228.35 417.35 C219.98 416.83 211.63 415.97 203.25 415.64 C196.36 415.36 189.5 414.82
							 182.63 414.4 C173.46 413.84 164.29 413.45 155.14 412.64 C151.67 412.33 148.17 412.32 144.68 412.06 C136.03
							 411.44 127.32 411.52 118.69 410.69 C112 410.05 105.32 411.08 98.65 410.25 C97.71 410.14 96.65 410.74
							 95.68 411.1 C85.01 415.07 74.38 419.12 63.69 423.03 C50.17 427.98 36.54 432.65 23.11 437.82 C20.32 438.89
							 17.37 439.35 14.65 440.6 C13.75 441.02 12.54 441.05 11.9 439.22 C10.32 434.63 10.12 434.7 5.13 434.7
							 C3.73 434.7 2.34 434.7 0.94 434.7 C0 434.02 0.63 432.81 0.05 432.01 C1.04 430.75 2.55 430.63 3.93 430.21
							 C6.82 429.33 9.4 427.85 12.06 426.45 C16 424.39 20.39 423.21 24.55 421.54 C31.34 418.8 38.17 416.13
							 44.85 413.14 C51.94 409.98 59.32 407.77 66.65 405.31 C75.17 402.46 83.43 398.86 91.78 395.53 C92.67
							 395.17 93.54 394.78 94.47 394.97 C102.66 396.66 110.99 396.57 119.27 397.18 C124.35 397.55 129.51 397.32
							 134.52 398.54 L288.72 421.55 Z" class="st1"/>
				<path d="M288.72 421.55 C285.21 420.44 281.54 420.75 277.95 420.42 C269.11 419.62 260.23 419.12 251.36 418.58 C243.7
							 418.11 236.02 417.83 228.35 417.35 C219.98 416.83 211.63 415.97 203.25 415.64 C196.36 415.36 189.5 414.82
							 182.63 414.4 C173.46 413.84 164.29 413.45 155.14 412.64 C151.67 412.33 148.17 412.32 144.68 412.06 C136.03
							 411.44 127.32 411.52 118.69 410.69 C112 410.05 105.32 411.08 98.65 410.25 C97.71 410.14 96.65 410.74
							 95.68 411.1 C85.01 415.07 74.38 419.12 63.69 423.03 C50.17 427.98 36.54 432.65 23.11 437.82 C20.32 438.89
							 17.37 439.35 14.65 440.6 C13.75 441.02 12.54 441.05 11.9 439.22 C10.32 434.63 10.12 434.7 5.13 434.7
							 C3.73 434.7 2.34 434.7 0.94 434.7 C0 434.02 0.63 432.81 0.05 432.01 C1.04 430.75 2.55 430.63 3.93 430.21
							 C6.82 429.33 9.4 427.85 12.06 426.45 C16 424.39 20.39 423.21 24.55 421.54 C31.34 418.8 38.17 416.13
							 44.85 413.14 C51.94 409.98 59.32 407.77 66.65 405.31 C75.17 402.46 83.43 398.86 91.78 395.53 C92.67
							 395.17 93.54 394.78 94.47 394.97 C102.66 396.66 110.99 396.57 119.27 397.18 C124.35 397.55 129.51 397.32
							 134.52 398.54" class="st3"/>
			</g>
			<g id="shape29-14" v:mID="29" v:groupContext="shape" transform="translate(212.753,-151.87)">
				<title>工作表.29</title>
				<path d="M196.5 439.31 C194.61 441.05 192.28 440.28 190.23 440.14 C181.35 439.54 172.62 437.93 163.91 436.1 C155.72
							 434.37 147.39 433.24 139.13 431.84 C131.46 430.55 123.79 429.25 116.12 427.96 C107.25 426.46 98.37 425.03
							 89.52 423.45 C85.04 422.65 80.54 421.84 76.05 421.25 C72.27 420.75 68.31 421.73 64.42 421.97 C57.48
							 422.39 50.61 423.38 43.8 424.7 C37.97 425.83 32.01 426.26 26.17 426.21 C22.27 426.18 18.16 426.44 14.19
							 425.37 C12.05 424.8 9.63 425.17 7.34 425.3 C5.1 425.42 4.29 424.52 4.32 422.28 C4.41 415.51 4.2 408.73
							 4.41 401.96 C4.54 397.54 3.77 393.21 3.67 388.81 C3.65 387.74 3.82 386.35 2.33 385.42 C1.37 384.83 0.84
							 383.36 0.74 381.94 C0.31 375.87 0 369.8 0.17 363.71 L196.5 439.31 Z" class="st1"/>
				<path d="M196.5 439.31 C194.61 441.05 192.28 440.28 190.23 440.14 C181.35 439.54 172.62 437.93 163.91 436.1 C155.72
							 434.37 147.39 433.24 139.13 431.84 C131.46 430.55 123.79 429.25 116.12 427.96 C107.25 426.46 98.37 425.03
							 89.52 423.45 C85.04 422.65 80.54 421.84 76.05 421.25 C72.27 420.75 68.31 421.73 64.42 421.97 C57.48
							 422.39 50.61 423.38 43.8 424.7 C37.97 425.83 32.01 426.26 26.17 426.21 C22.27 426.18 18.16 426.44 14.19
							 425.37 C12.05 424.8 9.63 425.17 7.34 425.3 C5.1 425.42 4.29 424.52 4.32 422.28 C4.41 415.51 4.2 408.73
							 4.41 401.96 C4.54 397.54 3.77 393.21 3.67 388.81 C3.65 387.74 3.82 386.35 2.33 385.42 C1.37 384.83 0.84
							 383.36 0.74 381.94 C0.31 375.87 0 369.8 0.17 363.71" class="st2"/>
			</g>
			<g id="shape30-17" v:mID="30" v:groupContext="shape" transform="translate(298.628,-72.7663)">
				<title>工作表.30</title>
				<path d="M55.94 440 C52.48 441.05 48.97 440.43 45.22 440.63 C44.81 420.97 46.52 401.65 45.58 382.15 C40.01 381.71
							 34.5 381.49 29.05 380.77 C23.58 380.03 18.07 379.78 12.59 379.2 C8.68 378.78 4.65 378.37 0.51 378.38
							 C0 385.51 0.69 392.28 0.66 399.06 C0.65 399.81 0.53 400.6 1.25 401.15 L55.94 440 Z" class="st1"/>
				<path d="M55.94 440 C52.48 441.05 48.97 440.43 45.22 440.63 C44.81 420.97 46.52 401.65 45.58 382.15 C40.01 381.71
							 34.5 381.49 29.05 380.77 C23.58 380.03 18.07 379.78 12.59 379.2 C8.68 378.78 4.65 378.37 0.51 378.38
							 C0 385.51 0.69 392.28 0.66 399.06 C0.65 399.81 0.53 400.6 1.25 401.15" class="st2"/>
			</g>
			<g id="shape31-20" v:mID="31" v:groupContext="shape" transform="translate(9.71976,-92.0478)">
				<title>工作表.31</title>
				<path d="M28.99 441.05 C28.39 426 28.04 410.95 26.91 395.93 C26.69 392.95 26.62 389.95 26.62 386.96 C26.62 385.03
							 25.46 384.29 23.9 383.99 C17.21 382.7 11.24 382.54 3.62 384.95 C2.24 403.27 0.64 421.68 0 440.15 L28.99
							 441.05 Z" class="st1"/>
				<path d="M28.99 441.05 C28.39 426 28.04 410.95 26.91 395.93 C26.69 392.95 26.62 389.95 26.62 386.96 C26.62 385.03
							 25.46 384.29 23.9 383.99 C17.21 382.7 11.24 382.54 3.62 384.95 C2.24 403.27 0.64 421.68 0 440.15"
						class="st2"/>
			</g>
			<g id="shape32-23" v:mID="32" v:groupContext="shape" transform="translate(220.661,-179.604)">
				<title>工作表.32</title>
				<path d="M9.59 441.05 C18.64 440.18 27.73 440.53 37.3 440.43 C35.98 408.48 36.66 376.8 36.46 344.9 C24.41 346.54
							 12.66 348.14 0.8 349.76 C0.64 351.89 0.53 353.89 0.32 355.88 C0 358.99 0.98 361.28 3.89 362.81 C5.35
							 363.59 6.44 365.04 7.81 366.03 C11.68 368.79 13.02 372.51 12.3 377.1 C12.2 377.69 12.28 378.3 12.28
							 378.89 L9.59 441.05 Z" class="st1"/>
				<path d="M9.59 441.05 C18.64 440.18 27.73 440.53 37.3 440.43 C35.98 408.48 36.66 376.8 36.46 344.9 C24.41 346.54
							 12.66 348.14 0.8 349.76 C0.64 351.89 0.53 353.89 0.32 355.88 C0 358.99 0.98 361.28 3.89 362.81 C5.35
							 363.59 6.44 365.04 7.81 366.03 C11.68 368.79 13.02 372.51 12.3 377.1 C12.2 377.69 12.28 378.3 12.28
							 378.89" class="st2"/>
			</g>
			<g id="shape33-26" v:mID="33" v:groupContext="shape" transform="translate(511.153,-96.2314)">
				<title>工作表.33</title>
				<path d="M26.3 441.05 C25.8 435.07 25.31 429.1 24.8 423.12 C24.31 417.44 23.79 411.77 23.31 406.09 C22.89 400.91
							 22.46 395.73 22.13 390.55 C21.97 388.03 19.85 388.51 18.51 388.22 C13.12 387.06 7.72 387.35 2.31 388.87
							 C2.14 391.44 1.74 394.14 1.84 396.82 C2.09 403.42 1.24 409.96 1.13 416.54 C1 424.72 0.4 432.88 0 441.05
							 L26.3 441.05 Z" class="st1"/>
				<path d="M26.3 441.05 C25.8 435.07 25.31 429.1 24.8 423.12 C24.31 417.44 23.79 411.77 23.31 406.09 C22.89 400.91
							 22.46 395.73 22.13 390.55 C21.97 388.03 19.85 388.51 18.51 388.22 C13.12 387.06 7.72 387.35 2.31 388.87
							 C2.14 391.44 1.74 394.14 1.84 396.82 C2.09 403.42 1.24 409.96 1.13 416.54 C1 424.72 0.4 432.88 0 441.05"
						class="st2"/>
			</g>
			<g id="shape34-29" v:mID="34" v:groupContext="shape" transform="translate(225.682,-2.10055)">
				<title>工作表.34</title>
				<path d="M0.69 317.63 C0 323.4 0.41 329.19 0.43 334.97 C0.46 342.34 0.6 349.72 1.02 357.08 C2.17 377.19 1.27 397.32
							 1.6 417.44 C1.72 425.31 1.98 433.18 2.18 441.05 L0.69 317.63 Z" class="st1"/>
				<path d="M0.69 317.63 C0 323.4 0.41 329.19 0.43 334.97 C0.46 342.34 0.6 349.72 1.02 357.08 C2.17 377.19 1.27 397.32
							 1.6 417.44 C1.72 425.31 1.98 433.18 2.18 441.05" class="st2"/>
			</g>
			<g id="shape35-32" v:mID="35" v:groupContext="shape" transform="translate(162.994,-144.94)">
				<title>工作表.35</title>
				<path d="M3.31 321.82 C3.31 324.41 3.32 327 3.31 329.59 C3.19 355.98 2.49 382.37 2.63 408.78 C2.66 415.14 2.38 421.54
							 1.99 427.89 C1.75 431.67 1.83 435.61 0.34 439.26 C0 440.09 0.71 440.56 1.22 441.05 L3.31 321.82 Z"
						class="st1"/>
				<path d="M3.31 321.82 C3.31 324.41 3.32 327 3.31 329.59 C3.19 355.98 2.49 382.37 2.63 408.78 C2.66 415.14 2.38 421.54
							 1.99 427.89 C1.75 431.67 1.83 435.61 0.34 439.26 C0 440.09 0.71 440.56 1.22 441.05" class="st2"/>
			</g>
			<g id="shape36-35" v:mID="36" v:groupContext="shape" transform="translate(172.282,-162.272)">
				<title>工作表.36</title>
				<path d="M0 343.33 C5.08 340.44 10.14 337.52 15.25 334.69 C16.26 334.14 17.33 333.7 18.5 333.38 C20.49 332.84 20.93
							 333.54 20.92 335.26 C20.91 341.14 20.85 347.02 20.93 352.9 C21.09 364.35 21.21 375.82 21.66 387.26 C22.2
							 401.41 21.9 415.55 22.11 429.69 C22.12 430.67 22.27 431.51 20.95 432.14 C14.59 435.18 8.33 438.4 1.79
							 441.05 L0 343.33 Z" class="st1"/>
				<path d="M0 343.33 C5.08 340.44 10.14 337.52 15.25 334.69 C16.26 334.14 17.33 333.7 18.5 333.38 C20.49 332.84 20.93
							 333.54 20.92 335.26 C20.91 341.14 20.85 347.02 20.93 352.9 C21.09 364.35 21.21 375.82 21.66 387.26 C22.2
							 401.41 21.9 415.55 22.11 429.69 C22.12 430.67 22.27 431.51 20.95 432.14 C14.59 435.18 8.33 438.4 1.79
							 441.05" class="st2"/>
			</g>
			<g id="shape37-38" v:mID="37" v:groupContext="shape" transform="translate(173.461,-161.675)">
				<title>工作表.37</title>
				<path d="M19.14 336.46 C13.83 338.49 9.51 342.28 4.48 344.79 C0.97 346.53 0.21 349.14 0.22 352.9 C0.3 377.1 0.11
							 401.31 0.02 425.51 C0 430.69 0.02 435.87 0.02 441.05 L19.14 336.46 Z" class="st1"/>
				<path d="M19.14 336.46 C13.83 338.49 9.51 342.28 4.48 344.79 C0.97 346.53 0.21 349.14 0.22 352.9 C0.3 377.1 0.11
							 401.31 0.02 425.51 C0 430.69 0.02 435.87 0.02 441.05" class="st2"/>
			</g>
			<g id="shape38-41" v:mID="38" v:groupContext="shape">
				<title>工作表.38</title>
				<path d="M10.02 360.95 C19.34 359.48 28.74 359.15 38.09 360.21 C40.97 360.54 43.19 360.5 45.61 358.9 C50.57 355.64
							 51.65 354.76 52.93 351.53 C35.3 348.59 17.79 347.33 0 350.14 C0.48 353.31 2.52 354.97 4.36 356.76 C5.27
							 357.64 6.22 358.64 7.35 359.11 C9.95 360.19 10.05 362.24 10.03 364.54 C9.91 377.39 9.79 390.24 9.73
							 403.09 C9.68 414.25 9.72 425.4 9.72 436.71 C10.81 436.76 11.91 436.85 13.01 436.85 C18.39 436.87 23.77
							 437.02 29.14 436.83 C43.59 436.3 58.03 437.05 72.47 437.28 C83.13 437.45 93.8 437.4 104.45 437.83 C119.19
							 438.42 133.95 437.88 148.67 438.47 C161.43 438.98 174.18 438.62 186.92 438.99 C194.79 439.22 202.65
							 439.68 210.53 439.54 C221.3 439.36 232.05 439.72 242.81 440.12 C246.98 440.27 251.17 440.09 255.36 440.15
							 C266.61 440.32 277.87 440.64 289.12 440.72 C303.47 440.82 317.81 440.74 332.16 440.74 C344.61 440.74
							 357.06 440.53 369.51 440.81 C378.67 441.02 387.84 441.01 397 441.02 C418.93 441.05 440.82 439.58 462.74
							 439.43 C470.6 439.38 478.49 439.28 486.35 438.88 C498.7 438.24 511.06 438.45 523.4 437.98 C527.49 437.83
							 531.57 437.92 535.7 437.71 C535.88 436.26 536.29 434.76 536.22 433.27 C535.92 426.88 536.64 420.52 536.91
							 414.15 C537.39 402.89 537.93 391.63 538.51 380.37 C538.82 374.41 539.43 368.44 539.25 362.45 C539.22
							 361.33 539 360.14 539.84 359.16 L10.02 360.95 Z" class="st1"/>
				<path d="M10.02 360.95 C19.34 359.48 28.74 359.15 38.09 360.21 C40.97 360.54 43.19 360.5 45.61 358.9 C50.57 355.64
							 51.65 354.76 52.93 351.53 C35.3 348.59 17.79 347.33 0 350.14 C0.48 353.31 2.52 354.97 4.36 356.76 C5.27
							 357.64 6.22 358.64 7.35 359.11 C9.95 360.19 10.05 362.24 10.03 364.54 C9.91 377.39 9.79 390.24 9.73
							 403.09 C9.68 414.25 9.72 425.4 9.72 436.71 C10.81 436.76 11.91 436.85 13.01 436.85 C18.39 436.87 23.77
							 437.02 29.14 436.83 C43.59 436.3 58.03 437.05 72.47 437.28 C83.13 437.45 93.8 437.4 104.45 437.83 C119.19
							 438.42 133.95 437.88 148.67 438.47 C161.43 438.98 174.18 438.62 186.92 438.99 C194.79 439.22 202.65
							 439.68 210.53 439.54 C221.3 439.36 232.05 439.72 242.81 440.12 C246.98 440.27 251.17 440.09 255.36 440.15
							 C266.61 440.32 277.87 440.64 289.12 440.72 C303.47 440.82 317.81 440.74 332.16 440.74 C344.61 440.74
							 357.06 440.53 369.51 440.81 C378.67 441.02 387.84 441.01 397 441.02 C418.93 441.05 440.82 439.58 462.74
							 439.43 C470.6 439.38 478.49 439.28 486.35 438.88 C498.7 438.24 511.06 438.45 523.4 437.98 C527.49 437.83
							 531.57 437.92 535.7 437.71 C535.88 436.26 536.29 434.76 536.22 433.27 C535.92 426.88 536.64 420.52 536.91
							 414.15 C537.39 402.89 537.93 391.63 538.51 380.37 C538.82 374.41 539.43 368.44 539.25 362.45 C539.22
							 361.33 539 360.14 539.84 359.16" class="st2"/>
			</g>
			<g id="shape39-44" v:mID="39" v:groupContext="shape" transform="translate(353.671,-163.232)">
				<title>工作表.39</title>
				<path d="M0.6 338.02 C0.12 338.97 0.31 340 0.31 341.01 C0.3 369.09 0.3 397.18 0.29 425.27 C0.29 427.78 1.35 430.21
							 0.88 432.74 C0.68 433.81 1.59 434.12 2.12 434.5 C5.21 436.74 8.37 438.86 11.54 441.05 C12.65 439.98
							 12.23 438.83 12.23 437.83 C12.26 416.21 12.23 394.59 12.27 372.98 C12.28 366.9 12.26 360.82 12.63 354.76
							 C12.83 351.36 11.82 348.62 9.52 346.42 C6.56 343.6 4.63 339.78 0.93 337.66 C0.4 337.36 0.3 336.32 0
							 335.63 L0.6 338.02 Z" class="st1"/>
				<path d="M0.6 338.02 C0.12 338.97 0.31 340 0.31 341.01 C0.3 369.09 0.3 397.18 0.29 425.27 C0.29 427.78 1.35 430.21
							 0.88 432.74 C0.68 433.81 1.59 434.12 2.12 434.5 C5.21 436.74 8.37 438.86 11.54 441.05 C12.65 439.98
							 12.23 438.83 12.23 437.83 C12.26 416.21 12.23 394.59 12.27 372.98 C12.28 366.9 12.26 360.82 12.63 354.76
							 C12.83 351.36 11.82 348.62 9.52 346.42 C6.56 343.6 4.63 339.78 0.93 337.66 C0.4 337.36 0.3 336.32 0
							 335.63" class="st2"/>
			</g>
			<g id="shape40-47" v:mID="40" v:groupContext="shape" transform="translate(241.013,-1.5029)">
				<title>工作表.40</title>
				<path d="M0 441.05 C0 416.45 0 391.84 0 367.1 C1.1 367 2.2 366.91 3.44 366.81 C4.17 345.82 2.78 325 3.01 303.92 C18.28
							 305.19 33.24 306.49 48.36 308.48 C48.58 314.74 49.67 320.95 48.77 326.86 C47.8 333.23 49.21 339.25 49.27
							 345.42 C49.33 351.6 49.1 357.78 49.02 363.95 C49 364.95 48.83 365.98 49.31 366.94 L0 441.05 Z"
						class="st1"/>
				<path d="M0 441.05 C0 416.45 0 391.84 0 367.1 C1.1 367 2.2 366.91 3.44 366.81 C4.17 345.82 2.78 325 3.01 303.92 C18.28
							 305.19 33.24 306.49 48.36 308.48 C48.58 314.74 49.67 320.95 48.77 326.86 C47.8 333.23 49.21 339.25 49.27
							 345.42 C49.33 351.6 49.1 357.78 49.02 363.95 C49 364.95 48.83 365.98 49.31 366.94" class="st2"/>
			</g>
			<g id="shape41-50" v:mID="41" v:groupContext="shape" transform="translate(410.747,-3.29586)">
				<title>工作表.41</title>
				<path d="M99.21 441.05 C99.21 420.63 99.14 400.21 99.29 379.79 C99.31 377.04 98.37 376.27 95.92 376.18 C88.95 375.94
							 81.98 375.54 75.01 375.32 C58.67 374.81 42.32 374.42 26 373.56 C17.34 373.1 8.67 373.12 0 372.92 L99.21
							 441.05 Z" class="st1"/>
				<path d="M99.21 441.05 C99.21 420.63 99.14 400.21 99.29 379.79 C99.31 377.04 98.37 376.27 95.92 376.18 C88.95 375.94
							 81.98 375.54 75.01 375.32 C58.67 374.81 42.32 374.42 26 373.56 C17.34 373.1 8.67 373.12 0 372.92"
						class="st2"/>
			</g>
			<g id="shape42-53" v:mID="42" v:groupContext="shape" transform="translate(194.027,-2.10055)">
				<title>工作表.42</title>
				<path d="M21.29 318.83 C18.9 317.83 16.51 316.83 14.11 315.84 C12.98 315.38 11.81 315.12 10.83 316.15 C7.49 319.65
							 3.56 322.64 1.81 327.48 C1.02 329.65 0.93 331.89 0.74 334.08 C0.39 338.14 0.69 342.26 0.3 346.31 C0
							 349.36 1.98 349.62 3.95 350.21 C8.14 351.46 8.42 351.86 8.74 356.48 C9.5 367.52 10.12 378.56 9.98 389.65
							 C9.78 406.78 9.93 423.92 9.93 441.05 L21.29 318.83 Z" class="st1"/>
				<path d="M21.29 318.83 C18.9 317.83 16.51 316.83 14.11 315.84 C12.98 315.38 11.81 315.12 10.83 316.15 C7.49 319.65
							 3.56 322.64 1.81 327.48 C1.02 329.65 0.93 331.89 0.74 334.08 C0.39 338.14 0.69 342.26 0.3 346.31 C0
							 349.36 1.98 349.62 3.95 350.21 C8.14 351.46 8.42 351.86 8.74 356.48 C9.5 367.52 10.12 378.56 9.98 389.65
							 C9.78 406.78 9.93 423.92 9.93 441.05" class="st2"/>
			</g>
			<g id="shape43-56" v:mID="43" v:groupContext="shape" transform="translate(385.048,-0.606411)">
				<title>工作表.43</title>
				<path d="M8.37 441.05 C7.81 412.66 7.63 384.27 7.78 355.88 C7.79 354.77 7.77 353.71 6.87 352.89 C4.59 353.07 2.33
							 354 0 353.19 L8.37 441.05 Z" class="st1"/>
				<path d="M8.37 441.05 C7.81 412.66 7.63 384.27 7.78 355.88 C7.79 354.77 7.77 353.71 6.87 352.89 C4.59 353.07 2.33
							 354 0 353.19" class="st2"/>
			</g>
			<g id="shape44-59" v:mID="44" v:groupContext="shape" transform="translate(410.747,-81.2699)">
				<title>工作表.44</title>
				<path d="M95.03 440.43 C94.07 440.91 93.04 440.72 92.04 440.72 C75.3 440.73 58.56 441.05 41.84 440.63 C27.89 440.28
							 13.95 440.17 0 440.13 L95.03 440.43 Z" class="st1"/>
				<path d="M95.03 440.43 C94.07 440.91 93.04 440.72 92.04 440.72 C75.3 440.73 58.56 441.05 41.84 440.63 C27.89 440.28
							 13.95 440.17 0 440.13" class="st2"/>
			</g>
			<g id="shape45-62" v:mID="45" v:groupContext="shape" transform="translate(41.9932,-53.499)">
				<title>工作表.45</title>
				<path d="M92.94 432.38 C86.31 433.57 79.61 433.94 72.92 434.49 C65.44 435.11 57.97 435.89 50.5 436.56 C44.53 437.09
							 38.55 437.56 32.57 438.06 C26.7 438.56 20.82 439.03 14.94 439.56 C9.96 440.02 4.98 440.55 0 441.05 L92.94
							 432.38 Z" class="st1"/>
				<path d="M92.94 432.38 C86.31 433.57 79.61 433.94 72.92 434.49 C65.44 435.11 57.97 435.89 50.5 436.56 C44.53 437.09
							 38.55 437.56 32.57 438.06 C26.7 438.56 20.82 439.03 14.94 439.56 C9.96 440.02 4.98 440.55 0 441.05"
						class="st2"/>
			</g>
			<g id="shape46-65" v:mID="46" v:groupContext="shape" transform="translate(178.856,-2.69821)">
				<title>工作表.46</title>
				<path d="M0 327.2 C1.63 327.8 3.31 328.53 4.71 329.4 C7.82 331.33 8.99 334.7 8.93 338.25 C8.72 348.91 9.6 359.59
							 8.42 370.23 C8.31 371.22 7.55 372.83 9.86 372.99 C11.46 373.09 10.72 374.69 10.73 375.61 C10.77 388.06
							 10.47 400.52 10.85 412.96 C11.13 422.32 11.35 431.68 11.36 441.05 L0 327.2 Z" class="st1"/>
				<path d="M0 327.2 C1.63 327.8 3.31 328.53 4.71 329.4 C7.82 331.33 8.99 334.7 8.93 338.25 C8.72 348.91 9.6 359.59
							 8.42 370.23 C8.31 371.22 7.55 372.83 9.86 372.99 C11.46 373.09 10.72 374.69 10.73 375.61 C10.77 388.06
							 10.47 400.52 10.85 412.96 C11.13 422.32 11.35 431.68 11.36 441.05" class="st2"/>
			</g>
			<g id="shape47-68" v:mID="47" v:groupContext="shape" transform="translate(41.9932,-66.5217)">
				<title>工作表.47</title>
				<path d="M92.64 432.26 C90.25 432.36 87.84 432.34 85.47 432.58 C73.71 433.73 61.96 434.99 50.2 436.13 C43.14 436.81
							 36.05 437.23 28.99 437.96 C20.61 438.84 12.25 439.95 3.88 440.9 C2.6 441.05 1.29 440.92 0 440.92 L92.64
							 432.26 Z" class="st1"/>
				<path d="M92.64 432.26 C90.25 432.36 87.84 432.34 85.47 432.58 C73.71 433.73 61.96 434.99 50.2 436.13 C43.14 436.81
							 36.05 437.23 28.99 437.96 C20.61 438.84 12.25 439.95 3.88 440.9 C2.6 441.05 1.29 440.92 0 440.92"
						class="st2"/>
			</g>
			<g id="shape48-71" v:mID="48" v:groupContext="shape" transform="translate(248.185,-0.905239)">
				<title>工作表.48</title>
				<path d="M34.66 441.05 C34.66 419.33 34.67 397.62 34.64 375.91 C34.64 374.39 35.01 372.94 33.27 371.59 C31.84 370.48
							 33.35 368.24 33.62 366.67 C34.41 362.08 34.69 357.52 34.69 352.9 C34.69 351.24 34.51 350.14 32.6 349.52
							 C30.84 348.95 29 347.71 29.33 345.43 C29.96 341.15 27.47 338.98 24.19 337.38 C19.93 335.31 15.47 334.16
							 10.76 335.87 C6.88 337.29 6.57 337.81 6.57 341.84 C6.57 343.23 6.57 344.63 6.57 346.01 C5.58 346.06
							 4.67 346.57 3.55 346.1 C2.84 345.8 1.74 345.73 0.66 346.4 C0.45 351.64 0.7 356.91 1.76 362.17 C2.21
							 364.37 1.54 366.42 0 368.14 L34.66 441.05 Z" class="st1"/>
				<path d="M34.66 441.05 C34.66 419.33 34.67 397.62 34.64 375.91 C34.64 374.39 35.01 372.94 33.27 371.59 C31.84 370.48
							 33.35 368.24 33.62 366.67 C34.41 362.08 34.69 357.52 34.69 352.9 C34.69 351.24 34.51 350.14 32.6 349.52
							 C30.84 348.95 29 347.71 29.33 345.43 C29.96 341.15 27.47 338.98 24.19 337.38 C19.93 335.31 15.47 334.16
							 10.76 335.87 C6.88 337.29 6.57 337.81 6.57 341.84 C6.57 343.23 6.57 344.63 6.57 346.01 C5.58 346.06
							 4.67 346.57 3.55 346.1 C2.84 345.8 1.74 345.73 0.66 346.4 C0.45 351.64 0.7 356.91 1.76 362.17 C2.21
							 364.37 1.54 366.42 0 368.14" class="st2"/>
			</g>
			<g id="shape49-74" v:mID="49" v:groupContext="shape" transform="translate(355.165,-0.905239)">
				<title>工作表.49</title>
				<path d="M0 353.79 C2.38 352.69 4.43 354.17 6.56 354.75 C7.7 355.06 7.43 356.39 7.47 357.38 C7.69 362.26 6.83 367.42
							 8.53 371.96 C10.65 377.56 9.56 383.18 10.05 388.76 C10.55 394.5 9.93 400.32 10.21 406.08 C10.78 417.74
							 11.38 429.38 11.36 441.05 L0 353.79 Z" class="st1"/>
				<path d="M0 353.79 C2.38 352.69 4.43 354.17 6.56 354.75 C7.7 355.06 7.43 356.39 7.47 357.38 C7.69 362.26 6.83 367.42
							 8.53 371.96 C10.65 377.56 9.56 383.18 10.05 388.76 C10.55 394.5 9.93 400.32 10.21 406.08 C10.78 417.74
							 11.38 429.38 11.36 441.05" class="st2"/>
			</g>
			<g id="shape50-77" v:mID="50" v:groupContext="shape" transform="translate(298.089,-180.729)">
				<title>工作表.50</title>
				<path d="M2.39 434.11 C4.66 435.7 7.4 435.11 9.88 435.49 C15.31 436.32 20.7 436.89 25.73 439.41 C27.61 440.35 29.88
							 440.48 32.27 441.05 C32.27 411.2 32.27 381.41 32.27 351.51 C21.55 350.01 10.81 348.45 0 347.45 L2.39
							 434.11 Z" class="st1"/>
				<path d="M2.39 434.11 C4.66 435.7 7.4 435.11 9.88 435.49 C15.31 436.32 20.7 436.89 25.73 439.41 C27.61 440.35 29.88
							 440.48 32.27 441.05 C32.27 411.2 32.27 381.41 32.27 351.51 C21.55 350.01 10.81 348.45 0 347.45"
						class="st2"/>
			</g>
			<g id="shape51-80" v:mID="51" v:groupContext="shape" transform="translate(167.675,-2.39938)">
				<title>工作表.51</title>
				<path d="M19.55 350.21 C18.35 350.41 18.01 349.44 17.45 348.72 C13.73 344 9.58 343.98 4.57 348.07 C0 351.82 1.02
							 355.61 6.73 357.99 C7.93 361.69 7.49 365.53 7.62 369.33 C7.69 371.63 8.03 373.91 8.17 376.21 C8.2 376.76
							 8.4 377.3 8.8 377.36 C11.14 377.75 10.49 379.91 10.46 380.98 C10.35 385.7 11.26 390.34 11.18 395.03
							 C11.07 401.32 11.66 407.58 11.91 413.85 C12.24 422.02 12.67 430.19 12.98 438.36 C13.02 439.26 13.17
							 440.15 13.27 441.05 L19.55 350.21 Z" class="st1"/>
				<path d="M19.55 350.21 C18.35 350.41 18.01 349.44 17.45 348.72 C13.73 344 9.58 343.98 4.57 348.07 C0 351.82 1.02
							 355.61 6.73 357.99 C7.93 361.69 7.49 365.53 7.62 369.33 C7.69 371.63 8.03 373.91 8.17 376.21 C8.2 376.76
							 8.4 377.3 8.8 377.36 C11.14 377.75 10.49 379.91 10.46 380.98 C10.35 385.7 11.26 390.34 11.18 395.03
							 C11.07 401.32 11.66 407.58 11.91 413.85 C12.24 422.02 12.67 430.19 12.98 438.36 C13.02 439.26 13.17
							 440.15 13.27 441.05" class="st2"/>
			</g>
			<g id="shape52-83" v:mID="52" v:groupContext="shape" transform="translate(352.187,-95.9326)">
				<title>工作表.52</title>
				<path d="M43.02 415.35 C43.02 413.36 43.02 411.37 43.02 409.07 C28.99 408.31 14.95 407.54 0.59 406.76 C0.59 413.06
							 0 418.91 0.75 424.59 C1.49 430.15 2.06 435.55 0.89 441.05 L43.02 415.35 Z" class="st1"/>
				<path d="M43.02 415.35 C43.02 413.36 43.02 411.37 43.02 409.07 C28.99 408.31 14.95 407.54 0.59 406.76 C0.59 413.06
							 0 418.91 0.75 424.59 C1.49 430.15 2.06 435.55 0.89 441.05" class="st2"/>
			</g>
			<g id="shape53-86" v:mID="53" v:groupContext="shape" transform="translate(177.001,-301.825)">
				<title>工作表.53</title>
				<path d="M86.13 320.62 C86.03 324.24 86.62 327.83 85.06 331.43 C84.11 333.63 85.41 335.99 87.48 337.47 C85.74 342.48
							 81.95 345.52 78.36 348.71 C65.96 359.75 51.17 367.11 37.12 375.6 C25.54 382.6 15.06 390.91 7.93 402.56
							 C2.38 411.61 0 421.63 1.83 432.39 C2.44 435.98 4.6 438.54 6.94 441.05 L86.13 320.62 Z" class="st1"/>
				<path d="M86.13 320.62 C86.03 324.24 86.62 327.83 85.06 331.43 C84.11 333.63 85.41 335.99 87.48 337.47 C85.74 342.48
							 81.95 345.52 78.36 348.71 C65.96 359.75 51.17 367.11 37.12 375.6 C25.54 382.6 15.06 390.91 7.93 402.56
							 C2.38 411.61 0 421.63 1.83 432.39 C2.44 435.98 4.6 438.54 6.94 441.05" class="st3"/>
			</g>
			<g id="shape54-89" v:mID="54" v:groupContext="shape" transform="translate(297.192,-193.948)">
				<title>工作表.54</title>
				<path d="M0.6 360.96 C0 363.43 0.15 365.97 0.36 368.43 C0.75 373.02 0.49 377.6 0.59 382.18 C0.91 396.52 1.3 410.86
							 1.28 425.21 C1.27 429.68 1.4 434.18 1.5 438.66 C1.52 439.5 1.3 440.4 2.09 441.05 L0.6 360.96 Z"
						class="st1"/>
				<path d="M0.6 360.96 C0 363.43 0.15 365.97 0.36 368.43 C0.75 373.02 0.49 377.6 0.59 382.18 C0.91 396.52 1.3 410.86
							 1.28 425.21 C1.27 429.68 1.4 434.18 1.5 438.66 C1.52 439.5 1.3 440.4 2.09 441.05" class="st2"/>
			</g>
			<g id="shape55-92" v:mID="55" v:groupContext="shape" transform="translate(195.292,-300.587)">
				<title>工作表.55</title>
				<path d="M77.4 416.8 C76.43 422.04 76.96 427.37 76.74 432.71 C67.94 433.6 59.37 434.43 50.8 435.34 C44.82 435.98
							 38.85 436.76 32.87 437.41 C26.2 438.15 19.52 438.79 12.85 439.52 C9.86 439.85 6.88 440.39 3.88 440.67
							 C2.59 440.8 1.18 441.05 0 440.11 L77.4 416.8 Z" class="st1"/>
				<path d="M77.4 416.8 C76.43 422.04 76.96 427.37 76.74 432.71 C67.94 433.6 59.37 434.43 50.8 435.34 C44.82 435.98
							 38.85 436.76 32.87 437.41 C26.2 438.15 19.52 438.79 12.85 439.52 C9.86 439.85 6.88 440.39 3.88 440.67
							 C2.59 440.8 1.18 441.05 0 440.11" class="st2"/>
			</g>
			<g id="shape56-95" v:mID="56" v:groupContext="shape" transform="translate(279.016,-299.435)">
				<title>工作表.56</title>
				<path d="M1.14 415.95 C0.31 421 0 426.08 0.32 431.2 C8.22 432.18 16.2 433.07 24.15 434.2 C33.83 435.58 43.47 437.21
							 53.14 438.63 C56.82 439.17 60.44 440.3 64.19 440.09 C65.59 440.02 66.53 440.97 67.78 441.05 L1.14 415.95
							 Z" class="st1"/>
				<path d="M1.14 415.95 C0.31 421 0 426.08 0.32 431.2 C8.22 432.18 16.2 433.07 24.15 434.2 C33.83 435.58 43.47 437.21
							 53.14 438.63 C56.82 439.17 60.44 440.3 64.19 440.09 C65.59 440.02 66.53 440.97 67.78 441.05"
						class="st3"/>
			</g>
			<g id="shape57-98" v:mID="57" v:groupContext="shape" transform="translate(196.082,-2.10055)">
				<title>工作表.57</title>
				<path d="M0.11 349.31 C0 344.8 0.8 340.81 5.16 338.21 C8.8 336.03 13.12 337.04 14.68 339.2 C17.38 342.95 19.89 346.55
							 18.88 352.04 C17.97 356.96 16.6 362.2 17.54 367.22 C19.84 379.53 18.42 391.95 19.15 404.3 C19.58 411.54
							 19.23 418.84 19.23 426.11 C19.23 431.09 19.23 436.07 19.23 441.05 L0.11 349.31 Z" class="st1"/>
				<path d="M0.11 349.31 C0 344.8 0.8 340.81 5.16 338.21 C8.8 336.03 13.12 337.04 14.68 339.2 C17.38 342.95 19.89 346.55
							 18.88 352.04 C17.97 356.96 16.6 362.2 17.54 367.22 C19.84 379.53 18.42 391.95 19.15 404.3 C19.58 411.54
							 19.23 418.84 19.23 426.11 C19.23 431.09 19.23 436.07 19.23 441.05" class="st2"/>
			</g>
			<g id="shape58-101" v:mID="58" v:groupContext="shape" transform="translate(247.587,-1.5029)">
				<title>工作表.58</title>
				<path d="M0 372.32 C5.98 372.32 5.98 372.32 5.98 378.3 C5.98 399.21 5.98 420.13 5.98 441.05 L0 372.32 Z"
						class="st1"/>
				<path d="M0 372.32 C5.98 372.32 5.98 372.32 5.98 378.3 C5.98 399.21 5.98 420.13 5.98 441.05" class="st2"/>
			</g>
			<g id="shape59-104" v:mID="59" v:groupContext="shape" transform="translate(392.519,-0.905239)">
				<title>工作表.59</title>
				<path d="M0 246.21 C6.88 242.68 17.35 241.97 20.62 246.51 C20.21 248.21 19.55 249.88 18.2 250.96 C15.98 252.73 15.81
							 254.99 15.79 257.57 C15.7 267.15 16.36 276.7 16.73 286.26 C16.79 287.84 17.23 289.16 18.82 289.86 C19.26
							 290.05 19.75 290.36 20 290.75 C22.73 294.97 26.76 295.83 31.38 295.24 C31.67 295.2 31.99 295.36 32.21
							 295.41 C32.88 296.25 32.46 297.12 32.57 297.91 C32.78 299.49 32.07 300.16 30.48 300.02 C29.69 299.94
							 28.89 300 28.09 300 C21.86 300 18.23 303.64 18.23 309.86 C18.23 317.83 18.5 325.81 18.16 333.77 C17.69
							 344.93 17.64 356.08 17.63 367.24 C17.63 381.98 17.29 396.73 17.75 411.46 C18.06 421.33 18.15 431.19
							 18.23 441.05 L0 246.21 Z" class="st1"/>
				<path d="M0 246.21 C6.88 242.68 17.35 241.97 20.62 246.51 C20.21 248.21 19.55 249.88 18.2 250.96 C15.98 252.73 15.81
							 254.99 15.79 257.57 C15.7 267.15 16.36 276.7 16.73 286.26 C16.79 287.84 17.23 289.16 18.82 289.86 C19.26
							 290.05 19.75 290.36 20 290.75 C22.73 294.97 26.76 295.83 31.38 295.24 C31.67 295.2 31.99 295.36 32.21
							 295.41 C32.88 296.25 32.46 297.12 32.57 297.91 C32.78 299.49 32.07 300.16 30.48 300.02 C29.69 299.94
							 28.89 300 28.09 300 C21.86 300 18.23 303.64 18.23 309.86 C18.23 317.83 18.5 325.81 18.16 333.77 C17.69
							 344.93 17.64 356.08 17.63 367.24 C17.63 381.98 17.29 396.73 17.75 411.46 C18.06 421.33 18.15 431.19
							 18.23 441.05" class="st2"/>
			</g>
			<g id="shape60-107" v:mID="60" v:groupContext="shape" transform="translate(379.472,-0.606411)">
				<title>工作表.60</title>
				<path d="M10.95 373.51 C7.57 374.29 4.18 373.55 0.83 373.48 C0 374.16 0.17 375.07 0.21 375.9 C1.01 392.73 0.66 409.57
							 0.86 426.41 C0.92 431.28 1.11 436.17 1.09 441.05 L10.95 373.51 Z" class="st1"/>
				<path d="M10.95 373.51 C7.57 374.29 4.18 373.55 0.83 373.48 C0 374.16 0.17 375.07 0.21 375.9 C1.01 392.73 0.66 409.57
							 0.86 426.41 C0.92 431.28 1.11 436.17 1.09 441.05" class="st2"/>
			</g>
			<g id="shape61-110" v:mID="61" v:groupContext="shape" transform="translate(292.382,-0.905239)">
				<title>工作表.61</title>
				<path d="M0.03 372.32 C0.03 378.4 0 384.47 0.03 390.55 C0.12 404.89 0.22 419.24 0.33 433.58 C0.35 436.07 1.09 438.56
							 0.33 441.05 L0.03 372.32 Z" class="st1"/>
				<path d="M0.03 372.32 C0.03 378.4 0 384.47 0.03 390.55 C0.12 404.89 0.22 419.24 0.33 433.58 C0.35 436.07 1.09 438.56
							 0.33 441.05" class="st2"/>
			</g>
			<g id="shape62-113" v:mID="62" v:groupContext="shape" transform="translate(301.376,-0.905239)">
				<title>工作表.62</title>
				<path d="M0.6 372.32 C0.91 395.23 0 418.14 0 441.05 L0.6 372.32 Z" class="st1"/>
				<path d="M0.6 372.32 C0.91 395.23 0 418.14 0 441.05" class="st2"/>
			</g>
			<g id="shape63-116" v:mID="63" v:groupContext="shape" transform="translate(356.116,-175.122)">
				<title>工作表.63</title>
				<path d="M7.42 416.84 C6.24 412.64 5.73 408.35 5.63 403.99 C5.57 401.26 4.7 398.79 3.23 396.53 C2.18 394.92 1.15
							 395.32 0.59 396.84 C0.23 397.84 0.3 399.01 0.25 400.11 C0 406.1 0.73 412.06 0.82 418.04 C0.91 423.82
							 0.74 429.6 0.89 435.37 C0.95 437.45 0.91 439.8 3.23 441.05 L7.42 416.84 Z" class="st1"/>
				<path d="M7.42 416.84 C6.24 412.64 5.73 408.35 5.63 403.99 C5.57 401.26 4.7 398.79 3.23 396.53 C2.18 394.92 1.15
							 395.32 0.59 396.84 C0.23 397.84 0.3 399.01 0.25 400.11 C0 406.1 0.73 412.06 0.82 418.04 C0.91 423.82
							 0.74 429.6 0.89 435.37 C0.95 437.45 0.91 439.8 3.23 441.05" class="st2"/>
			</g>
			<g id="shape64-119" v:mID="64" v:groupContext="shape" transform="translate(246.989,-1.5029)">
				<title>工作表.64</title>
				<path d="M0 370.53 C0 392.54 0 414.55 0 436.57 C0 438.06 0 439.56 0 441.05 L0 370.53 Z" class="st1"/>
				<path d="M0 370.53 C0 392.54 0 414.55 0 436.57 C0 438.06 0 439.56 0 441.05" class="st2"/>
			</g>
			<g id="shape65-122" v:mID="65" v:groupContext="shape" transform="translate(203.958,-313.479)">
				<title>工作表.65</title>
				<path d="M67.54 433.88 C57.86 433.51 48.19 434.04 38.56 434.61 C26.55 435.31 14.6 437.06 3.01 440.51 C1.99 440.81
							 1.03 441.03 0 441.05 L67.54 433.88 Z" class="st1"/>
				<path d="M67.54 433.88 C57.86 433.51 48.19 434.04 38.56 434.61 C26.55 435.31 14.6 437.06 3.01 440.51 C1.99 440.81
							 1.03 441.03 0 441.05" class="st2"/>
			</g>
			<g id="shape66-125" v:mID="66" v:groupContext="shape" transform="translate(352.695,-0.905239)">
				<title>工作表.66</title>
				<path d="M0.38 373.81 C0 377.02 0.69 380.18 0.68 383.38 C0.67 402.6 0.68 421.82 0.68 441.05 L0.38 373.81 Z"
						class="st1"/>
				<path d="M0.38 373.81 C0 377.02 0.69 380.18 0.68 383.38 C0.67 402.6 0.68 421.82 0.68 441.05" class="st2"/>
			</g>
			<g id="shape67-128" v:mID="67" v:groupContext="shape" transform="translate(345.603,-0.905239)">
				<title>工作表.67</title>
				<path d="M0 373.81 C0.48 375.27 0.61 376.76 0.61 378.3 C0.59 390.05 0.67 401.8 0.57 413.56 C0.5 422.72 0.2 431.89
							 0 441.05 L0 373.81 Z" class="st1"/>
				<path d="M0 373.81 C0.48 375.27 0.61 376.76 0.61 378.3 C0.59 390.05 0.67 401.8 0.57 413.56 C0.5 422.72 0.2 431.89
							 0 441.05" class="st2"/>
			</g>
			<g id="shape68-131" v:mID="68" v:groupContext="shape" transform="translate(335.442,-0.905239)">
				<title>工作表.68</title>
				<path d="M0 374.11 C0 396.42 0 418.74 0 441.05 L0 374.11 Z" class="st1"/>
				<path d="M0 374.11 C0 396.42 0 418.74 0 441.05" class="st2"/>
			</g>
			<g id="shape69-134" v:mID="69" v:groupContext="shape" transform="translate(143.874,-2.69821)">
				<title>工作表.69</title>
				<path d="M17.05 441.05 C15.47 402.3 17.56 363.55 17.37 324.74 C15.62 323.86 14.11 325.11 12.59 325.48 C9.14 326.33
							 5.83 327.7 2.39 328.63 C1.23 328.95 0.91 329.38 0.9 330.48 C0.85 333.67 0.22 336.94 0.71 340.03 C2.04
							 348.34 0.72 356.61 0.44 364.84 C0 377.82 1.65 390.74 0.94 403.7 C0.76 407.17 0.94 410.67 0.91 414.15
							 C0.83 423.02 0.72 431.89 0.62 440.75 L17.05 441.05 Z" class="st1"/>
				<path d="M17.05 441.05 C15.47 402.3 17.56 363.55 17.37 324.74 C15.62 323.86 14.11 325.11 12.59 325.48 C9.14 326.33
							 5.83 327.7 2.39 328.63 C1.23 328.95 0.91 329.38 0.9 330.48 C0.85 333.67 0.22 336.94 0.71 340.03 C2.04
							 348.34 0.72 356.61 0.44 364.84 C0 377.82 1.65 390.74 0.94 403.7 C0.76 407.17 0.94 410.67 0.91 414.15
							 C0.83 423.02 0.72 431.89 0.62 440.75" class="st2"/>
			</g>
			<g id="shape70-137" v:mID="70" v:groupContext="shape" transform="translate(145.089,-2.99704)">
				<title>工作表.70</title>
				<path d="M5.38 441.05 C4.75 434.18 5.25 427.3 5.08 420.43 C4.76 407.58 4.22 394.74 4.47 381.88 C4.47 381.68 4.28
							 381.48 4.18 381.28 C2.64 380.47 1.32 381.16 0 381.88 L5.38 441.05 Z" class="st1"/>
				<path d="M5.38 441.05 C4.75 434.18 5.25 427.3 5.08 420.43 C4.76 407.58 4.22 394.74 4.47 381.88 C4.47 381.68 4.28
							 381.48 4.18 381.28 C2.64 380.47 1.32 381.16 0 381.88" class="st2"/>
			</g>
			<g id="shape71-140" v:mID="71" v:groupContext="shape" transform="translate(280.159,-307.802)">
				<title>工作表.71</title>
				<path d="M0 428.5 C6.23 429.6 12.55 429.45 18.83 430 C31.58 431.11 44.3 432.46 56.18 437.77 C58.49 438.81 60.76 439.95
							 63.05 441.05 L0 428.5 Z" class="st1"/>
				<path d="M0 428.5 C6.23 429.6 12.55 429.45 18.83 430 C31.58 431.11 44.3 432.46 56.18 437.77 C58.49 438.81 60.76 439.95
							 63.05 441.05" class="st3"/>
			</g>
			<g id="shape72-143" v:mID="72" v:groupContext="shape" transform="translate(395.347,-67.8427)">
				<title>工作表.72</title>
				<path d="M14.8 392.64 C10.63 391.93 6.45 391.82 2.25 392.33 C0.8 392.51 0 393.12 0.15 394.73 C0.84 402.19 0.52 409.68
							 0.39 417.14 C0.26 425.13 1.37 433.07 1.06 441.05 L14.8 392.64 Z" class="st1"/>
				<path d="M14.8 392.64 C10.63 391.93 6.45 391.82 2.25 392.33 C0.8 392.51 0 393.12 0.15 394.73 C0.84 402.19 0.52 409.68
							 0.39 417.14 C0.26 425.13 1.37 433.07 1.06 441.05" class="st2"/>
			</g>
			<g id="shape73-146" v:mID="73" v:groupContext="shape" transform="translate(129.922,-133.585)">
				<title>工作表.73</title>
				<path d="M1.72 378.89 C1.56 385.18 2.21 391.5 0.59 397.74 C0 400.02 1.87 401.91 3.3 403.3 C5.09 405.04 5.35 406.86
							 5.33 409.08 C5.27 418.24 5.33 427.4 5.29 436.57 C5.28 438.11 5.42 439.59 5.9 441.05 L1.72 378.89 Z"
						class="st1"/>
				<path d="M1.72 378.89 C1.56 385.18 2.21 391.5 0.59 397.74 C0 400.02 1.87 401.91 3.3 403.3 C5.09 405.04 5.35 406.86
							 5.33 409.08 C5.27 418.24 5.33 427.4 5.29 436.57 C5.28 438.11 5.42 439.59 5.9 441.05" class="st2"/>
			</g>
			<g id="shape74-149" v:mID="74" v:groupContext="shape" transform="translate(165.157,-5.08883)">
				<title>工作表.74</title>
				<path d="M22.07 317.93 C15.59 320.32 9.14 322.77 2.63 325.07 C0.83 325.7 0 326.5 0.85 328.39 C0.97 328.68 1.16 329
							 1.13 329.29 C0.47 336.57 2.04 343.79 1.57 351.11 C1.1 358.35 1.63 365.65 1.75 372.92 C1.79 375.26 3.26
							 377.77 0.85 379.79 C1.34 380.09 1.08 380.58 1.15 380.98 C2.25 387.13 1.69 393.34 1.72 399.51 C1.78 412.46
							 2.7 425.4 2.36 438.36 C2.34 439.25 2.54 440.15 2.64 441.05 L22.07 317.93 Z" class="st1"/>
				<path d="M22.07 317.93 C15.59 320.32 9.14 322.77 2.63 325.07 C0.83 325.7 0 326.5 0.85 328.39 C0.97 328.68 1.16 329
							 1.13 329.29 C0.47 336.57 2.04 343.79 1.57 351.11 C1.1 358.35 1.63 365.65 1.75 372.92 C1.79 375.26 3.26
							 377.77 0.85 379.79 C1.34 380.09 1.08 380.58 1.15 380.98 C2.25 387.13 1.69 393.34 1.72 399.51 C1.78 412.46
							 2.7 425.4 2.36 438.36 C2.34 439.25 2.54 440.15 2.64 441.05" class="st2"/>
			</g>
			<g id="shape75-152" v:mID="75" v:groupContext="shape" transform="translate(144.61,-137.171)">
				<title>工作表.75</title>
				<path d="M4.66 381.58 C3.97 387.75 4.54 393.94 4.38 400.11 C4.34 401.91 4.02 403.52 3.25 405.23 C1.62 408.87 0.72
							 412.73 0.72 416.84 C0.72 423.92 0.37 430.99 0.19 438.06 C0.17 439.06 0 440.09 0.48 441.05 L4.66 381.58
							 Z" class="st1"/>
				<path d="M4.66 381.58 C3.97 387.75 4.54 393.94 4.38 400.11 C4.34 401.91 4.02 403.52 3.25 405.23 C1.62 408.87 0.72
							 412.73 0.72 416.84 C0.72 423.92 0.37 430.99 0.19 438.06 C0.17 439.06 0 440.09 0.48 441.05" class="st2"/>
			</g>
			<g id="shape76-155" v:mID="76" v:groupContext="shape" transform="translate(134.928,-2.99704)">
				<title>工作表.76</title>
				<path d="M1.2 326.6 C0.7 331.87 0.94 337.16 0.91 342.44 C0.87 348.11 1.14 353.8 0.84 359.47 C0.42 367.35 0 375.18
							 0.8 383.09 C1.25 387.61 0.89 392.25 0.55 396.82 C0.15 402.3 0.39 407.78 0.31 413.26 C0.17 422.52 0.1
							 431.79 0 441.05 L1.2 326.6 Z" class="st1"/>
				<path d="M1.2 326.6 C0.7 331.87 0.94 337.16 0.91 342.44 C0.87 348.11 1.14 353.8 0.84 359.47 C0.42 367.35 0 375.18
							 0.8 383.09 C1.25 387.61 0.89 392.25 0.55 396.82 C0.15 402.3 0.39 407.78 0.31 413.26 C0.17 422.52 0.1
							 431.79 0 441.05" class="st2"/>
			</g>
			<g id="shape77-158" v:mID="77" v:groupContext="shape" transform="translate(354.269,-92.9443)">
				<title>工作表.77</title>
				<path d="M39.15 441.05 C38.44 437.07 39.04 433.08 39.18 429.1 C39.38 423.46 36.64 419.69 31.96 417.18 C28.27 415.21
							 24.42 413.52 20.6 411.81 C20.11 411.59 19.82 410.84 18.79 411.39 C15.74 413.01 12.29 413.64 8.95 414.41
							 C4.37 415.46 1.79 418.51 0 422.52 L39.15 441.05 Z" class="st1"/>
				<path d="M39.15 441.05 C38.44 437.07 39.04 433.08 39.18 429.1 C39.38 423.46 36.64 419.69 31.96 417.18 C28.27 415.21
							 24.42 413.52 20.6 411.81 C20.11 411.59 19.82 410.84 18.79 411.39 C15.74 413.01 12.29 413.64 8.95 414.41
							 C4.37 415.46 1.79 418.51 0 422.52" class="st3"/>
			</g>
			<g id="shape78-161" v:mID="78" v:groupContext="shape" transform="translate(307.651,-183.788)">
				<title>工作表.78</title>
				<path d="M0 394.43 C1.58 395.66 3.64 395.45 5.38 396.22 C11.12 398.74 13.19 403.63 13.4 409.38 C13.77 419.53 13.85
							 429.69 14.03 439.85 C14.04 440.25 13.85 440.65 13.75 441.05 L0 394.43 Z" class="st1"/>
				<path d="M0 394.43 C1.58 395.66 3.64 395.45 5.38 396.22 C11.12 398.74 13.19 403.63 13.4 409.38 C13.77 419.53 13.85
							 429.69 14.03 439.85 C14.04 440.25 13.85 440.65 13.75 441.05" class="st2"/>
			</g>
			<g id="shape79-164" v:mID="79" v:groupContext="shape" transform="translate(40.7488,-5.08883)">
				<title>工作表.79</title>
				<path d="M0.65 366.34 C0 369.91 0.15 373.54 0.43 377.09 C0.86 382.49 0.57 387.86 0.62 393.24 C0.75 405.79 0.46 418.35
							 1.21 430.89 C1.42 434.27 1.24 437.66 1.24 441.05 L0.65 366.34 Z" class="st1"/>
				<path d="M0.65 366.34 C0 369.91 0.15 373.54 0.43 377.09 C0.86 382.49 0.57 387.86 0.62 393.24 C0.75 405.79 0.46 418.35
							 1.21 430.89 C1.42 434.27 1.24 437.66 1.24 441.05" class="st2"/>
			</g>
			<g id="shape80-167" v:mID="80" v:groupContext="shape" transform="translate(175.271,-172.731)">
				<title>工作表.80</title>
				<path d="M0 411.47 C0.98 410.76 2.8 411.8 3.2 410.54 C3.83 408.55 3.96 406.39 4.17 404.29 C4.55 400.43 4.4 396.47
							 7.16 393.23 C9.33 390.66 12.06 390.9 13.77 393.82 C14.43 394.96 14.87 396.21 14.89 397.42 C15.17 409.47
							 15.84 421.52 15.59 433.58 C15.55 435.05 14.75 435.46 13.75 435.97 C10.46 437.66 7.17 439.36 3.88 441.05
							 L0 411.47 Z" class="st1"/>
				<path d="M0 411.47 C0.98 410.76 2.8 411.8 3.2 410.54 C3.83 408.55 3.96 406.39 4.17 404.29 C4.55 400.43 4.4 396.47
							 7.16 393.23 C9.33 390.66 12.06 390.9 13.77 393.82 C14.43 394.96 14.87 396.21 14.89 397.42 C15.17 409.47
							 15.84 421.52 15.59 433.58 C15.55 435.05 14.75 435.46 13.75 435.97 C10.46 437.66 7.17 439.36 3.88 441.05"
						class="st2"/>
			</g>
			<g id="shape81-170" v:mID="81" v:groupContext="shape" transform="translate(299.571,-186.179)">
				<title>工作表.81</title>
				<path d="M28.1 411.76 C25.92 409.62 25.09 407.04 25.38 403.99 C25.56 402.18 25.07 400.6 23.66 399.17 C21.45 396.93
							 18.87 395.18 16.41 393.29 C13.36 390.95 11.04 393.78 8.73 395.13 C7.71 395.73 6.78 396.72 5.73 397.48
							 C3.8 398.87 2.98 400.79 2.56 403.37 C1.17 411.94 1.78 420.52 1.43 429.09 C1.27 433.08 0 437 0.01 441.05
							 L28.1 411.76 Z" class="st1"/>
				<path d="M28.1 411.76 C25.92 409.62 25.09 407.04 25.38 403.99 C25.56 402.18 25.07 400.6 23.66 399.17 C21.45 396.93
							 18.87 395.18 16.41 393.29 C13.36 390.95 11.04 393.78 8.73 395.13 C7.71 395.73 6.78 396.72 5.73 397.48
							 C3.8 398.87 2.98 400.79 2.56 403.37 C1.17 411.94 1.78 420.52 1.43 429.09 C1.27 433.08 0 437 0.01 441.05"
						class="st3"/>
			</g>
			<g id="shape82-173" v:mID="82" v:groupContext="shape" transform="translate(266.272,-346.649)">
				<title>工作表.82</title>
				<path d="M8.81 358.27 C6.85 360.9 5.38 364 1.94 365.15 C0.69 365.57 0.87 366.73 1.08 367.53 C1.96 370.87 1.68 374.41
							 2.82 377.7 C2.91 377.97 2.95 378.37 2.81 378.58 C0 383.14 3.73 385.69 6.19 388.08 C13.34 395.03 20.8
							 401.63 29.69 406.45 C35.93 409.83 41.33 414.64 47.95 417.46 C55.96 420.87 63.39 425.25 70.07 430.89
							 C73.75 433.99 76.98 437.52 80.23 441.05 L8.81 358.27 Z" class="st1"/>
				<path d="M8.81 358.27 C6.85 360.9 5.38 364 1.94 365.15 C0.69 365.57 0.87 366.73 1.08 367.53 C1.96 370.87 1.68 374.41
							 2.82 377.7 C2.91 377.97 2.95 378.37 2.81 378.58 C0 383.14 3.73 385.69 6.19 388.08 C13.34 395.03 20.8
							 401.63 29.69 406.45 C35.93 409.83 41.33 414.64 47.95 417.46 C55.96 420.87 63.39 425.25 70.07 430.89
							 C73.75 433.99 76.98 437.52 80.23 441.05" class="st3"/>
			</g>
			<g id="shape83-176" v:mID="83" v:groupContext="shape" transform="translate(11.408,-149.722)">
				<title>工作表.83</title>
				<path d="M25.51 441.05 C27.92 433.69 25.49 427.51 18.94 423.99 C15.28 422.03 12.05 422.93 8.76 424.9 C2.79 428.48
							 0 433.98 1.3 439.85 L25.51 441.05 Z" class="st1"/>
				<path d="M25.51 441.05 C27.92 433.69 25.49 427.51 18.94 423.99 C15.28 422.03 12.05 422.93 8.76 424.9 C2.79 428.48
							 0 433.98 1.3 439.85" class="st3"/>
			</g>
			<g id="shape84-179" v:mID="84" v:groupContext="shape" transform="translate(512.213,-149.124)">
				<title>工作表.84</title>
				<path d="M21.95 440.75 C26.57 433.5 20.39 425.13 12.38 424.03 C10.62 423.79 9.21 424.88 7.93 425.84 C4 428.79 0.08
							 431.7 0.02 437.46 C0 438.94 0.31 439.96 1.03 441.05 L21.95 440.75 Z" class="st1"/>
				<path d="M21.95 440.75 C26.57 433.5 20.39 425.13 12.38 424.03 C10.62 423.79 9.21 424.88 7.93 425.84 C4 428.79 0.08
							 431.7 0.02 437.46 C0 438.94 0.31 439.96 1.03 441.05" class="st3"/>
			</g>
			<g id="shape85-182" v:mID="85" v:groupContext="shape" transform="translate(192.534,-302.124)">
				<title>工作表.85</title>
				<path d="M11.42 441.05 C10.21 437.72 11.04 434.27 10.85 430.89 C10.76 429.19 10.43 427.33 12.58 426.33 C12.93 426.17
							 12.89 425.01 12.9 424.31 C12.94 422.42 12.93 420.53 12.91 418.64 C12.87 414.6 12.74 414.41 9.03 412.96
							 C6.03 411.78 2.34 412.27 0.69 414.18 C0.25 414.7 0 415.4 0.03 416.25 C0.13 419.33 0.03 422.42 0.08 425.51
							 C0.12 427.4 1.22 428.01 3.06 427.3 C5.59 426.33 8.09 426.22 10.53 427.6 L11.42 441.05 Z" class="st1"/>
				<path d="M11.42 441.05 C10.21 437.72 11.04 434.27 10.85 430.89 C10.76 429.19 10.43 427.33 12.58 426.33 C12.93 426.17
							 12.89 425.01 12.9 424.31 C12.94 422.42 12.93 420.53 12.91 418.64 C12.87 414.6 12.74 414.41 9.03 412.96
							 C6.03 411.78 2.34 412.27 0.69 414.18 C0.25 414.7 0 415.4 0.03 416.25 C0.13 419.33 0.03 422.42 0.08 425.51
							 C0.12 427.4 1.22 428.01 3.06 427.3 C5.59 426.33 8.09 426.22 10.53 427.6" class="st2"/>
			</g>
			<g id="shape86-185" v:mID="86" v:groupContext="shape" transform="translate(299.583,-95.6338)">
				<title>工作表.86</title>
				<path d="M0 437.76 C1.09 432.34 0.5 426.72 1.81 421.33 C2.58 418.13 4.66 416.06 7.77 415.06 C10.35 414.23 13.14 413.82
							 15.5 412.58 C19.44 410.5 23.07 410.87 26.91 412.63 C29.83 413.97 32.99 414.82 35.83 416.3 C40.61 418.78
							 41.85 422.92 41.56 427.3 C41.24 431.99 41.64 436.61 43.33 441.05 L0 437.76 Z" class="st1"/>
				<path d="M0 437.76 C1.09 432.34 0.5 426.72 1.81 421.33 C2.58 418.13 4.66 416.06 7.77 415.06 C10.35 414.23 13.14 413.82
							 15.5 412.58 C19.44 410.5 23.07 410.87 26.91 412.63 C29.83 413.97 32.99 414.82 35.83 416.3 C40.61 418.78
							 41.85 422.92 41.56 427.3 C41.24 431.99 41.64 436.61 43.33 441.05" class="st3"/>
			</g>
			<g id="shape87-188" v:mID="87" v:groupContext="shape" transform="translate(359.05,-68.4404)">
				<title>工作表.87</title>
				<path d="M23.61 441.05 C24.66 436.42 24.62 431.7 24.45 427.01 C24.37 424.66 23.74 422.53 25.59 420.34 C26.64 419.09
							 26.56 416.81 25.08 415.37 C21.48 411.87 17.36 409 12.53 407.65 C5.82 405.77 0.3 410.72 0.91 417.74 C1.01
							 418.97 0.84 420.08 0 421.03 L23.61 441.05 Z" class="st1"/>
				<path d="M23.61 441.05 C24.66 436.42 24.62 431.7 24.45 427.01 C24.37 424.66 23.74 422.53 25.59 420.34 C26.64 419.09
							 26.56 416.81 25.08 415.37 C21.48 411.87 17.36 409 12.53 407.65 C5.82 405.77 0.3 410.72 0.91 417.74 C1.01
							 418.97 0.84 420.08 0 421.03" class="st3"/>
			</g>
			<g id="shape88-191" v:mID="88" v:groupContext="shape" transform="translate(290.021,-67.8381)">
				<title>工作表.88</title>
				<path d="M64.55 419.53 C64.43 426.26 64.81 432.98 65.22 439.84 C57.57 439.68 50.17 441.05 42.7 440.33 C41.82 438.2
							 42.92 436.3 43.18 434.49 C43.64 431.3 43.96 428.11 44.22 424.91 C44.45 422.08 44.25 419.36 42.14 417.13
							 C41.59 416.55 41.45 415.95 41.78 415.03 C42.63 412.71 41.65 410.83 40.07 409.04 C37.7 406.35 34.87 404.3
							 31.66 402.82 C28.04 401.16 24.83 403.27 21.87 404.71 C18.21 406.5 15.09 409.12 14.55 413.84 C14.27 416.33
							 11.46 415.45 9.56 416.37 C9.56 422.02 9.56 427.8 9.56 433.65 C6.2 434.4 3.05 432.75 0 433.87 L64.55
							 419.53 Z" class="st1"/>
				<path d="M64.55 419.53 C64.43 426.26 64.81 432.98 65.22 439.84 C57.57 439.68 50.17 441.05 42.7 440.33 C41.82 438.2
							 42.92 436.3 43.18 434.49 C43.64 431.3 43.96 428.11 44.22 424.91 C44.45 422.08 44.25 419.36 42.14 417.13
							 C41.59 416.55 41.45 415.95 41.78 415.03 C42.63 412.71 41.65 410.83 40.07 409.04 C37.7 406.35 34.87 404.3
							 31.66 402.82 C28.04 401.16 24.83 403.27 21.87 404.71 C18.21 406.5 15.09 409.12 14.55 413.84 C14.27 416.33
							 11.46 415.45 9.56 416.37 C9.56 422.02 9.56 427.8 9.56 433.65 C6.2 434.4 3.05 432.75 0 433.87"
						class="st2"/>
			</g>
			<g id="shape89-194" v:mID="89" v:groupContext="shape" transform="translate(350.285,-261.782)">
				<title>工作表.89</title>
				<path d="M0.1 389.95 C0.1 392.34 0.14 394.73 0.09 397.12 C0 401.71 1.53 405.76 4.61 409.04 C10.16 414.95 15.41 421.13
							 21.28 426.74 C23.73 429.09 26.91 430.63 28.9 433.65 C26.42 436.82 22.36 438.02 19.82 441.05 L0.1 389.95
							 Z" class="st1"/>
				<path d="M0.1 389.95 C0.1 392.34 0.14 394.73 0.09 397.12 C0 401.71 1.53 405.76 4.61 409.04 C10.16 414.95 15.41 421.13
							 21.28 426.74 C23.73 429.09 26.91 430.63 28.9 433.65 C26.42 436.82 22.36 438.02 19.82 441.05"
						class="st2"/>
			</g>
			<g id="shape90-197" v:mID="90" v:groupContext="shape" transform="translate(193.146,-115.356)">
				<title>工作表.90</title>
				<path d="M22.77 419.24 C19.85 418.81 17.33 420.27 14.72 421.09 C10.36 422.46 6.13 424.21 1.85 425.81 C1.28 426.03
							 0.61 426.2 0.66 427 C0.93 431.58 0 436.21 1.26 440.75 C1.29 440.87 1.45 440.95 1.55 441.05 L22.77 419.24
							 Z" class="st1"/>
				<path d="M22.77 419.24 C19.85 418.81 17.33 420.27 14.72 421.09 C10.36 422.46 6.13 424.21 1.85 425.81 C1.28 426.03
							 0.61 426.2 0.66 427 C0.93 431.58 0 436.21 1.26 440.75 C1.29 440.87 1.45 440.95 1.55 441.05"
						class="st2"/>
			</g>
			<g id="shape91-200" v:mID="91" v:groupContext="shape" transform="translate(396.105,-153.606)">
				<title>工作表.91</title>
				<path d="M0 405.49 C0.98 407.37 1.15 409.42 1.18 411.47 C1.32 419.83 1.46 428.2 1.43 436.57 C1.43 438.06 2.35 439.56
							 1.49 441.05 L0 405.49 Z" class="st1"/>
				<path d="M0 405.49 C0.98 407.37 1.15 409.42 1.18 411.47 C1.32 419.83 1.46 428.2 1.43 436.57 C1.43 438.06 2.35 439.56
							 1.49 441.05" class="st2"/>
			</g>
			<g id="shape92-203" v:mID="92" v:groupContext="shape" transform="translate(213.863,-171.835)">
				<title>工作表.92</title>
				<path d="M0.55 405.79 C0.08 406.75 0.28 407.77 0.26 408.78 C0 419.54 0.54 430.29 0.85 441.05 L0.55 405.79 Z"
						class="st1"/>
				<path d="M0.55 405.79 C0.08 406.75 0.28 407.77 0.26 408.78 C0 419.54 0.54 430.29 0.85 441.05" class="st2"/>
			</g>
			<g id="shape93-206" v:mID="93" v:groupContext="shape" transform="translate(246.093,-102.208)">
				<title>工作表.93</title>
				<path d="M42.43 429.69 C40.87 427.93 40.68 425.39 38.88 423.68 C36.11 421.06 32.47 420.13 29.26 418.38 C28.62 418.03
							 27.85 417.71 27.17 417.51 C24.66 416.78 22.62 414.25 19.73 415.09 C13.96 416.76 7.94 418.14 3.94 423.16
							 C2.65 424.78 2.26 426.91 2.02 429.09 C1.57 433.1 1.45 437.2 0 441.05 L42.43 429.69 Z" class="st1"/>
				<path d="M42.43 429.69 C40.87 427.93 40.68 425.39 38.88 423.68 C36.11 421.06 32.47 420.13 29.26 418.38 C28.62 418.03
							 27.85 417.71 27.17 417.51 C24.66 416.78 22.62 414.25 19.73 415.09 C13.96 416.76 7.94 418.14 3.94 423.16
							 C2.65 424.78 2.26 426.91 2.02 429.09 C1.57 433.1 1.45 437.2 0 441.05" class="st3"/>
			</g>
			<g id="shape94-209" v:mID="94" v:groupContext="shape" transform="translate(206.696,-228.484)">
				<title>工作表.94</title>
				<path d="M30.73 436.14 C29.83 432.14 26.52 431.62 23.27 430.71 C18.39 429.34 13.64 427.88 8.61 430.14 C5.52 431.52
							 3.07 433.71 0 435.83 C2.97 437.64 4.68 441.05 8.62 439.43 L30.73 436.14 Z" class="st1"/>
				<path d="M30.73 436.14 C29.83 432.14 26.52 431.62 23.27 430.71 C18.39 429.34 13.64 427.88 8.61 430.14 C5.52 431.52
							 3.07 433.71 0 435.83 C2.97 437.64 4.68 441.05 8.62 439.43" class="st2"/>
			</g>
			<g id="shape95-212" v:mID="95" v:groupContext="shape" transform="translate(497.202,-68.4404)">
				<title>工作表.95</title>
				<path d="M9.77 441.05 C9.97 437.26 10.15 433.48 10.38 429.69 C10.44 428.69 9.99 428.22 9.22 427.54 C6.6 425.21 4.15
							 422.66 1.71 420.12 C0 418.33 0.21 417.55 2.6 416.55 C8.91 413.93 15.62 413.38 22.32 413 C28 412.68 33.71
							 412.81 39.34 413.61 C44.05 414.28 48.53 415.9 52.79 418.06 C53.2 418.26 53.56 418.65 53.19 419.84 C51.25
							 422.45 48.45 424.95 45 426.65 C44.19 427.06 43.3 427.22 42 426.87 C34.84 424.91 27.51 425.24 20.23 426.42
							 C16.93 426.95 13.65 427.6 10.37 428.2 L9.77 441.05 Z" class="st1"/>
				<path d="M9.77 441.05 C9.97 437.26 10.15 433.48 10.38 429.69 C10.44 428.69 9.99 428.22 9.22 427.54 C6.6 425.21 4.15
							 422.66 1.71 420.12 C0 418.33 0.21 417.55 2.6 416.55 C8.91 413.93 15.62 413.38 22.32 413 C28 412.68 33.71
							 412.81 39.34 413.61 C44.05 414.28 48.53 415.9 52.79 418.06 C53.2 418.26 53.56 418.65 53.19 419.84 C51.25
							 422.45 48.45 424.95 45 426.65 C44.19 427.06 43.3 427.22 42 426.87 C34.84 424.91 27.51 425.24 20.23 426.42
							 C16.93 426.95 13.65 427.6 10.37 428.2" class="st3"/>
			</g>
			<g id="shape96-215" v:mID="96" v:groupContext="shape" transform="translate(178.259,-173.329)">
				<title>工作表.96</title>
				<path d="M0 411.76 C1 413.21 1.24 414.8 1.23 416.55 C1.15 423.62 1.18 430.69 1.21 437.76 C1.21 438.86 1.39 439.95
							 1.49 441.05 L0 411.76 Z" class="st1"/>
				<path d="M0 411.76 C1 413.21 1.24 414.8 1.23 416.55 C1.15 423.62 1.18 430.69 1.21 437.76 C1.21 438.86 1.39 439.95
							 1.49 441.05" class="st2"/>
			</g>
			<g id="shape97-218" v:mID="97" v:groupContext="shape" transform="translate(340.464,-312.944)">
				<title>工作表.97</title>
				<path d="M13.21 428.86 C12.71 428.56 12.06 428.37 11.74 427.94 C10.95 426.85 10.22 425.65 8.72 425.6 C6.52 425.53
							 4.27 425.3 2.16 426.19 C1.27 426.56 0.42 427.14 0.37 428.26 C0.24 430.85 0 433.45 0.11 436.03 C0.19
							 437.86 0.57 439.79 3.08 440.4 C4.65 439.41 6.96 439.45 8.67 440.06 C11.39 441.05 12 440.31 12.07 437.83
							 C12.08 437.46 12.39 436.61 13.21 436.63 L13.21 428.86 Z" class="st1"/>
				<path d="M13.21 428.86 C12.71 428.56 12.06 428.37 11.74 427.94 C10.95 426.85 10.22 425.65 8.72 425.6 C6.52 425.53
							 4.27 425.3 2.16 426.19 C1.27 426.56 0.42 427.14 0.37 428.26 C0.24 430.85 0 433.45 0.11 436.03 C0.19
							 437.86 0.57 439.79 3.08 440.4 C4.65 439.41 6.96 439.45 8.67 440.06 C11.39 441.05 12 440.31 12.07 437.83
							 C12.08 437.46 12.39 436.61 13.21 436.63" class="st2"/>
			</g>
			<g id="shape98-221" v:mID="98" v:groupContext="shape" transform="translate(217.704,-125.67)">
				<title>工作表.98</title>
				<path d="M12.85 419.09 C13.05 419.79 13.41 420.48 13.42 421.18 C13.47 426.66 13.52 432.14 13.42 437.62 C13.36 441.05
							 13.27 440.94 9.86 440.64 C6.58 440.35 3.29 439.89 0 440.61 L12.85 419.09 Z" class="st1"/>
				<path d="M12.85 419.09 C13.05 419.79 13.41 420.48 13.42 421.18 C13.47 426.66 13.52 432.14 13.42 437.62 C13.36 441.05
							 13.27 440.94 9.86 440.64 C6.58 440.35 3.29 439.89 0 440.61" class="st3"/>
			</g>
			<g id="shape99-224" v:mID="99" v:groupContext="shape" transform="translate(268.131,-324.948)">
				<title>工作表.99</title>
				<path d="M7.25 406.2 C4.1 410.14 1.95 414.6 0.42 419.36 C0.1 420.36 0 421.73 0.44 422.6 C2.68 427.12 0.88 431.8 1.21
							 436.39 C1.51 440.53 1.73 440.89 5.75 439.97 C7.61 439.55 9.33 440.43 11.13 440.62 C14.15 440.96 14.29
							 441.05 14.09 438.18 C13.92 435.59 13.56 433.02 13.46 430.41 C13.34 427.58 8.91 424.7 6.1 425.75 C4.89
							 426.21 3.39 425.6 2.47 426.82 L7.25 406.2 Z" class="st1"/>
				<path d="M7.25 406.2 C4.1 410.14 1.95 414.6 0.42 419.36 C0.1 420.36 0 421.73 0.44 422.6 C2.68 427.12 0.88 431.8 1.21
							 436.39 C1.51 440.53 1.73 440.89 5.75 439.97 C7.61 439.55 9.33 440.43 11.13 440.62 C14.15 440.96 14.29
							 441.05 14.09 438.18 C13.92 435.59 13.56 433.02 13.46 430.41 C13.34 427.58 8.91 424.7 6.1 425.75 C4.89
							 426.21 3.39 425.6 2.47 426.82" class="st3"/>
			</g>
			<g id="shape100-227" v:mID="100" v:groupContext="shape" transform="translate(282.55,-69.6357)">
				<title>工作表.100</title>
				<path d="M19.72 418.04 C20.91 424.66 20.65 431.39 21.21 438.06 C21.38 440.01 20.46 440.55 18.53 440.5 C13.25 440.36
							 7.97 440.45 2.69 440.45 C1.75 440.46 0.77 440.26 0 441.05 L19.72 418.04 Z" class="st1"/>
				<path d="M19.72 418.04 C20.91 424.66 20.65 431.39 21.21 438.06 C21.38 440.01 20.46 440.55 18.53 440.5 C13.25 440.36
							 7.97 440.45 2.69 440.45 C1.75 440.46 0.77 440.26 0 441.05" class="st2"/>
			</g>
			<g id="shape101-230" v:mID="101" v:groupContext="shape" transform="translate(401.782,-219.349)">
				<title>工作表.101</title>
				<path d="M0 420.73 C2.49 423.62 4.96 426.53 7.48 429.39 C9.7 431.91 9.73 434.98 9.88 438.06 C9.95 439.67 8.01 439.73
							 7.77 441.05 L0 420.73 Z" class="st1"/>
				<path d="M0 420.73 C2.49 423.62 4.96 426.53 7.48 429.39 C9.7 431.91 9.73 434.98 9.88 438.06 C9.95 439.67 8.01 439.73
							 7.77 441.05" class="st3"/>
			</g>
			<g id="shape102-233" v:mID="102" v:groupContext="shape" transform="translate(386.055,-190.063)">
				<title>工作表.102</title>
				<path d="M25.89 433.88 C27.36 431.85 25.85 429.69 26.15 427.6 C26.35 426.13 26.2 424.61 26.18 423.12 C26.17 421.86
							 26.26 420.58 27.69 420.16 C29.55 419.6 29.85 417.89 30.64 416.65 C29.47 412.9 26.17 412.27 23.19 412.18
							 C18.43 412.03 13.61 411.52 8.85 412.63 C5.74 413.35 2.74 415.02 0 418.33 C0.41 418.51 0.88 418.82 1.39
							 418.92 C5.33 419.69 6 422.34 5.59 425.81 C5.09 430.11 6.25 434.36 6.14 438.66 C6.11 439.84 6.81 440.3
							 7.59 440.79 C14.49 437.23 19.74 437.34 22.9 441.05 L25.89 433.88 Z" class="st1"/>
				<path d="M25.89 433.88 C27.36 431.85 25.85 429.69 26.15 427.6 C26.35 426.13 26.2 424.61 26.18 423.12 C26.17 421.86
							 26.26 420.58 27.69 420.16 C29.55 419.6 29.85 417.89 30.64 416.65 C29.47 412.9 26.17 412.27 23.19 412.18
							 C18.43 412.03 13.61 411.52 8.85 412.63 C5.74 413.35 2.74 415.02 0 418.33 C0.41 418.51 0.88 418.82 1.39
							 418.92 C5.33 419.69 6 422.34 5.59 425.81 C5.09 430.11 6.25 434.36 6.14 438.66 C6.11 439.84 6.81 440.3
							 7.59 440.79 C14.49 437.23 19.74 437.34 22.9 441.05" class="st2"/>
			</g>
			<g id="shape103-236" v:mID="103" v:groupContext="shape" transform="translate(347.097,-301.228)">
				<title>工作表.103</title>
				<path d="M0 396.23 C3.09 400.97 6.57 405.47 7.27 411.45 C7.54 413.81 7.11 416.05 7.16 418.34 C7.29 423.52 7.43 428.7
							 7.45 433.88 C7.46 436.72 6.67 439.3 4.18 441.05 L0 396.23 Z" class="st1"/>
				<path d="M0 396.23 C3.09 400.97 6.57 405.47 7.27 411.45 C7.54 413.81 7.11 416.05 7.16 418.34 C7.29 423.52 7.43 428.7
							 7.45 433.88 C7.46 436.72 6.67 439.3 4.18 441.05" class="st2"/>
			</g>
			<g id="shape104-239" v:mID="104" v:groupContext="shape" transform="translate(390.723,-218.452)">
				<title>工作表.104</title>
				<path d="M11.36 409.37 C10.51 412.52 11.86 415.89 10.7 418.91 C9.22 422.74 5.42 424.8 3.05 427.94 C0 431.98 0.32
							 436.53 2.09 441.05 L11.36 409.37 Z" class="st1"/>
				<path d="M11.36 409.37 C10.51 412.52 11.86 415.89 10.7 418.91 C9.22 422.74 5.42 424.8 3.05 427.94 C0 431.98 0.32
							 436.53 2.09 441.05" class="st2"/>
			</g>
			<g id="shape105-242" v:mID="105" v:groupContext="shape" transform="translate(214.118,-213.552)">
				<title>工作表.105</title>
				<path d="M19.42 440.63 C13.42 438.81 7.44 439.12 1.49 440.91 C1.03 441.05 0.5 440.93 0 440.93 L19.42 440.63 Z"
						class="st1"/>
				<path d="M19.42 440.63 C13.42 438.81 7.44 439.12 1.49 440.91 C1.03 441.05 0.5 440.93 0 440.93" class="st2"/>
			</g>
			<g id="shape106-245" v:mID="106" v:groupContext="shape" transform="translate(260.437,-425.222)">
				<title>工作表.106</title>
				<path d="M0 428.78 C0.63 429.93 0.25 431.17 0.28 432.36 C0.46 437.83 4.86 441.05 10.16 439.52 C10.98 439.28 11.75
							 439.19 12.55 439.54 L0 428.78 Z" class="st1"/>
				<path d="M0 428.78 C0.63 429.93 0.25 431.17 0.28 432.36 C0.46 437.83 4.86 441.05 10.16 439.52 C10.98 439.28 11.75
							 439.19 12.55 439.54" class="st3"/>
			</g>
			<g id="shape107-248" v:mID="107" v:groupContext="shape" transform="translate(146.284,-97.7256)">
				<title>工作表.107</title>
				<path d="M14.34 433.28 C12.24 433.2 11.47 431.11 10.25 430.41 C3.87 430.66 1.77 434.67 0.87 439.85 C0.79 440.29 0.3
							 440.65 0 441.05 L14.34 433.28 Z" class="st1"/>
				<path d="M14.34 433.28 C12.24 433.2 11.47 431.11 10.25 430.41 C3.87 430.66 1.77 434.67 0.87 439.85 C0.79 440.29 0.3
							 440.65 0 441.05" class="st3"/>
			</g>
			<g id="shape108-251" v:mID="108" v:groupContext="shape" transform="translate(274.571,-338.581)">
				<title>工作表.108</title>
				<path d="M0.81 415.95 C0 419.28 2.26 421.66 3.54 424.29 C4.28 425.81 5.51 427.09 6.48 428.5 C8.53 431.48 10.25 434.46
							 7.72 438.09 C7.15 438.9 7.08 440.05 6.78 441.05 L0.81 415.95 Z" class="st1"/>
				<path d="M0.81 415.95 C0 419.28 2.26 421.66 3.54 424.29 C4.28 425.81 5.51 427.09 6.48 428.5 C8.53 431.48 10.25 434.46
							 7.72 438.09 C7.15 438.9 7.08 440.05 6.78 441.05" class="st3"/>
			</g>
			<g id="shape109-254" v:mID="109" v:groupContext="shape" transform="translate(162.132,-275.528)">
				<title>工作表.109</title>
				<path d="M32.56 401.31 C33.19 404.14 32.67 406.98 32.93 409.67 C28.63 410.66 25.69 413.4 22.5 415.5 C21.38 416.24
							 21.11 418.71 20.97 420.44 C20.75 423.4 18.97 424.99 16.73 426.42 C12.09 429.37 7.59 432.54 3.25 435.94
							 C1.52 437.3 0 438.57 0.59 441.05 L32.56 401.31 Z" class="st1"/>
				<path d="M32.56 401.31 C33.19 404.14 32.67 406.98 32.93 409.67 C28.63 410.66 25.69 413.4 22.5 415.5 C21.38 416.24
							 21.11 418.71 20.97 420.44 C20.75 423.4 18.97 424.99 16.73 426.42 C12.09 429.37 7.59 432.54 3.25 435.94
							 C1.52 437.3 0 438.57 0.59 441.05" class="st3"/>
			</g>
			<g id="shape110-257" v:mID="110" v:groupContext="shape" transform="translate(187.373,-109.978)">
				<title>工作表.110</title>
				<path d="M0.75 421.63 C0.18 425.51 0.54 429.39 0.67 433.28 C0.75 435.85 1.52 438.58 0 441.05 L0.75 421.63 Z"
						class="st1"/>
				<path d="M0.75 421.63 C0.18 425.51 0.54 429.39 0.67 433.28 C0.75 435.85 1.52 438.58 0 441.05" class="st2"/>
			</g>
			<g id="shape111-260" v:mID="111" v:groupContext="shape" transform="translate(159.215,-294.411)">
				<title>工作表.111</title>
				<path d="M7.69 409.73 C9.48 412.22 11.51 414.58 12.99 417.24 C14.16 419.33 15.39 421.52 13.22 424.2 C12.3 425.34
							 12.8 427.91 13.13 429.74 C13.62 432.47 13.07 435.13 13.03 437.82 C12.99 440.03 11.61 441.05 9.5 440.46
							 C8.36 440.14 7.27 440.16 6.2 440.25 C3.64 440.47 2.93 439.98 2.91 437.52 C2.89 434.23 2.93 430.95 2.89
							 427.66 C2.88 426.56 3.1 425.17 2.54 424.42 C0 421.02 2.18 418.27 3.53 415.42 C4.05 414.34 4.81 413.33
							 5.61 412.43 C8.18 409.58 7.98 406.27 7.39 402.86 L7.69 409.73 Z" class="st1"/>
				<path d="M7.69 409.73 C9.48 412.22 11.51 414.58 12.99 417.24 C14.16 419.33 15.39 421.52 13.22 424.2 C12.3 425.34
							 12.8 427.91 13.13 429.74 C13.62 432.47 13.07 435.13 13.03 437.82 C12.99 440.03 11.61 441.05 9.5 440.46
							 C8.36 440.14 7.27 440.16 6.2 440.25 C3.64 440.47 2.93 439.98 2.91 437.52 C2.89 434.23 2.93 430.95 2.89
							 427.66 C2.88 426.56 3.1 425.17 2.54 424.42 C0 421.02 2.18 418.27 3.53 415.42 C4.05 414.34 4.81 413.33
							 5.61 412.43 C8.18 409.58 7.98 406.27 7.39 402.86" class="st2"/>
			</g>
			<g id="shape112-263" v:mID="112" v:groupContext="shape" transform="translate(129.529,-196.296)">
				<title>工作表.112</title>
				<path d="M22.43 440.41 C20.63 440.48 19.02 439.67 17.33 439.31 C12.51 438.27 7.67 438.68 3.01 440.42 C1.5 440.99
							 1.53 441.05 0 440.1 C3.62 435.16 8.97 436.65 13.77 436.67 C15.13 436.68 16.71 437.34 18.25 437.42 L22.43
							 440.41 Z" class="st1"/>
				<path d="M22.43 440.41 C20.63 440.48 19.02 439.67 17.33 439.31 C12.51 438.27 7.67 438.68 3.01 440.42 C1.5 440.99
							 1.53 441.05 0 440.1 C3.62 435.16 8.97 436.65 13.77 436.67 C15.13 436.68 16.71 437.34 18.25 437.42"
						class="st3"/>
			</g>
			<g id="shape113-266" v:mID="113" v:groupContext="shape" transform="translate(129.247,-199.925)">
				<title>工作表.113</title>
				<path d="M10.46 411.17 C10.66 415.95 11.14 420.74 10.94 425.51 C10.84 427.96 9.31 430.21 6.89 431.51 C6.49 431.72
							 6.14 431.95 5.7 432.13 C0.74 434.17 0 435.25 2.39 441.05 L10.46 411.17 Z" class="st1"/>
				<path d="M10.46 411.17 C10.66 415.95 11.14 420.74 10.94 425.51 C10.84 427.96 9.31 430.21 6.89 431.51 C6.49 431.72
							 6.14 431.95 5.7 432.13 C0.74 434.17 0 435.25 2.39 441.05" class="st3"/>
			</g>
			<g id="shape114-269" v:mID="114" v:groupContext="shape" transform="translate(191.867,-329.616)">
				<title>工作表.114</title>
				<path d="M6.11 421.03 C3.85 424.38 2.25 428.08 0.8 431.81 C0.16 433.47 0 435.42 1.05 437.19 C4.4 436.23 7.71 435.8
							 11.21 436.8 C13.73 437.51 14.43 438.72 13.59 441.05 L6.11 421.03 Z" class="st1"/>
				<path d="M6.11 421.03 C3.85 424.38 2.25 428.08 0.8 431.81 C0.16 433.47 0 435.42 1.05 437.19 C4.4 436.23 7.71 435.8
							 11.21 436.8 C13.73 437.51 14.43 438.72 13.59 441.05" class="st2"/>
			</g>
			<g id="shape115-272" v:mID="115" v:groupContext="shape" transform="translate(362.038,-294.056)">
				<title>工作表.115</title>
				<path d="M2.99 404.89 C2.41 408.49 4.33 411.15 6.25 413.87 C8.33 416.82 9.55 419.55 8.74 423.79 C8.07 427.26 8.81
							 431.5 9.23 435.38 C9.32 436.24 9.33 437.13 9.03 438.08 C8.51 439.73 8.15 440.69 5.96 440.26 C4.04 439.88
							 1.83 439.65 0 441.05 L2.99 404.89 Z" class="st1"/>
				<path d="M2.99 404.89 C2.41 408.49 4.33 411.15 6.25 413.87 C8.33 416.82 9.55 419.55 8.74 423.79 C8.07 427.26 8.81
							 431.5 9.23 435.38 C9.32 436.24 9.33 437.13 9.03 438.08 C8.51 439.73 8.15 440.69 5.96 440.26 C4.04 439.88
							 1.83 439.65 0 441.05" class="st3"/>
			</g>
			<g id="shape116-275" v:mID="116" v:groupContext="shape" transform="translate(255.476,-422.552)">
				<title>工作表.116</title>
				<path d="M6.75 424.61 C1.27 427.61 0 430.22 1.67 435.07 C2.89 438.59 5.98 440.75 9.74 440.76 C10.44 440.77 11.14
							 440.95 11.83 441.05 L6.75 424.61 Z" class="st1"/>
				<path d="M6.75 424.61 C1.27 427.61 0 430.22 1.67 435.07 C2.89 438.59 5.98 440.75 9.74 440.76 C10.44 440.77 11.14
							 440.95 11.83 441.05" class="st3"/>
			</g>
			<g id="shape117-278" v:mID="117" v:groupContext="shape" transform="translate(238.622,-217.854)">
				<title>工作表.117</title>
				<path d="M16.14 441.05 C15.91 440.6 15.89 440.13 15.26 439.81 C13.57 438.95 13.28 437.78 13.62 435.65 C15 427.07
							 10.07 423.42 2.99 423.68 C1.65 423.73 0.83 424.38 0 425.21 L16.14 441.05 Z" class="st1"/>
				<path d="M16.14 441.05 C15.91 440.6 15.89 440.13 15.26 439.81 C13.57 438.95 13.28 437.78 13.62 435.65 C15 427.07
							 10.07 423.42 2.99 423.68 C1.65 423.73 0.83 424.38 0 425.21" class="st3"/>
			</g>
			<g id="shape118-281" v:mID="118" v:groupContext="shape" transform="translate(357.959,-309.778)">
				<title>工作表.118</title>
				<path d="M7.07 425.69 C4.84 428.79 2.86 432.02 1.35 435.54 C0.8 436.84 0 438.11 0.83 439.42 C1.87 441.05 3.85 440.39
							 4.92 439.92 C7.38 438.84 9.72 439.14 12.15 439.44 L7.07 425.69 Z" class="st1"/>
				<path d="M7.07 425.69 C4.84 428.79 2.86 432.02 1.35 435.54 C0.8 436.84 0 438.11 0.83 439.42 C1.87 441.05 3.85 440.39
							 4.92 439.92 C7.38 438.84 9.72 439.14 12.15 439.44" class="st3"/>
			</g>
			<g id="shape119-284" v:mID="119" v:groupContext="shape" transform="translate(392.817,-220.843)">
				<title>工作表.119</title>
				<path d="M15.54 440.75 C10.33 439.33 5.15 439.51 0 441.05 L15.54 440.75 Z" class="st1"/>
				<path d="M15.54 440.75 C10.33 439.33 5.15 439.51 0 441.05" class="st2"/>
			</g>
			<g id="shape120-287" v:mID="120" v:groupContext="shape" transform="translate(140.606,-200.522)">
				<title>工作表.120</title>
				<path d="M0 427.6 C1.85 430.06 3.81 432.32 6.54 433.93 C9.27 435.53 8.59 438.48 8.67 441.05 L0 427.6 Z" class="st1"/>
				<path d="M0 427.6 C1.85 430.06 3.81 432.32 6.54 433.93 C9.27 435.53 8.59 438.48 8.67 441.05" class="st3"/>
			</g>
			<g id="shape121-290" v:mID="121" v:groupContext="shape" transform="translate(167.202,-104.001)">
				<title>工作表.121</title>
				<path d="M11.06 428.2 C7.59 430.68 3.69 432.59 1.68 436.81 C1.01 438.21 2.2 440.34 0 441.05 L11.06 428.2 Z"
						class="st1"/>
				<path d="M11.06 428.2 C7.59 430.68 3.69 432.59 1.68 436.81 C1.01 438.21 2.2 440.34 0 441.05" class="st3"/>
			</g>
			<g id="shape122-293" v:mID="122" v:groupContext="shape" transform="translate(339.546,-329.616)">
				<title>工作表.122</title>
				<path d="M6.36 424.91 C5.44 427.58 3.48 429.58 1.83 431.75 C0.43 433.6 0 435.54 0.06 437.76 C0.12 439.95 0.8 440.29
							 2.8 439.31 C5.48 437.99 8.34 438.65 11.14 439.24 C12.23 439.47 11.91 440.47 12.33 441.05 L6.36 424.91
							 Z" class="st1"/>
				<path d="M6.36 424.91 C5.44 427.58 3.48 429.58 1.83 431.75 C0.43 433.6 0 435.54 0.06 437.76 C0.12 439.95 0.8 440.29
							 2.8 439.31 C5.48 437.99 8.34 438.65 11.14 439.24 C12.23 439.47 11.91 440.47 12.33 441.05" class="st3"/>
			</g>
			<g id="shape123-296" v:mID="123" v:groupContext="shape" transform="translate(163.64,-280.31)">
				<title>工作表.123</title>
				<path d="M0.57 427 C0.47 430.69 0.36 434.38 0.29 438.06 C0.27 439.08 0 440.19 0.87 441.05 L0.57 427 Z" class="st1"/>
				<path d="M0.57 427 C0.47 430.69 0.36 434.38 0.29 438.06 C0.27 439.08 0 440.19 0.87 441.05" class="st2"/>
			</g>
			<g id="shape124-299" v:mID="124" v:groupContext="shape" transform="translate(368.911,-280.608)">
				<title>工作表.124</title>
				<path d="M0 427.3 C0.2 430.79 0.39 434.28 0.6 437.76 C0.67 438.86 0.8 439.95 0.9 441.05 L0 427.3 Z" class="st1"/>
				<path d="M0 427.3 C0.2 430.79 0.39 434.28 0.6 437.76 C0.67 438.86 0.8 439.95 0.9 441.05" class="st3"/>
			</g>
			<g id="shape125-302" v:mID="125" v:groupContext="shape" transform="translate(211.093,-240.267)">
				<title>工作表.125</title>
				<path d="M10.5 422.22 C9.43 423.29 8.18 424.1 6.93 424.94 C1.7 428.46 0 435.16 2.73 441.05 L10.5 422.22 Z"
						class="st1"/>
				<path d="M10.5 422.22 C9.43 423.29 8.18 424.1 6.93 424.94 C1.7 428.46 0 435.16 2.73 441.05" class="st3"/>
			</g>
			<g id="shape126-305" v:mID="126" v:groupContext="shape" transform="translate(238.622,-228.015)">
				<title>工作表.126</title>
				<path d="M13.15 441.05 C9.28 438.03 4.77 436.65 0 435.97 L13.15 441.05 Z" class="st1"/>
				<path d="M13.15 441.05 C9.28 438.03 4.77 436.65 0 435.97" class="st3"/>
			</g>
			<g id="shape127-308" v:mID="127" v:groupContext="shape" transform="translate(144.79,-78.4551)">
				<title>工作表.127</title>
				<path d="M15.84 433.13 C14.18 433.16 13.72 431.67 12.87 430.73 C10.49 428.11 8.95 427.92 6.28 430.15 C5.36 430.92
							 4.51 431.77 3.6 432.6 C4.23 434.99 4.84 437.44 4.79 440.01 C3.19 440.33 1.68 441.05 0 440.9 L15.84 433.13
							 Z" class="st1"/>
				<path d="M15.84 433.13 C14.18 433.16 13.72 431.67 12.87 430.73 C10.49 428.11 8.95 427.92 6.28 430.15 C5.36 430.92
							 4.51 431.77 3.6 432.6 C4.23 434.99 4.84 437.44 4.79 440.01 C3.19 440.33 1.68 441.05 0 440.9"
						class="st3"/>
			</g>
			<g id="shape128-311" v:mID="128" v:groupContext="shape" transform="translate(269.401,-341.868)">
				<title>工作表.128</title>
				<path d="M12.55 441.05 C8.37 438.49 4.18 439.22 0 441.05 L12.55 441.05 Z" class="st1"/>
				<path d="M12.55 441.05 C8.37 438.49 4.18 439.22 0 441.05" class="st2"/>
			</g>
			<g id="shape129-314" v:mID="129" v:groupContext="shape" transform="translate(359.198,-287.78)">
				<title>工作表.129</title>
				<path d="M1.64 418.64 C0.8 419.46 0 420.16 0.1 421.63 C0.28 424.41 0.08 427.21 0.18 429.99 C0.23 431.65 0.64 433.08
							 1.82 434.57 C3.17 436.27 3.88 438.68 2.84 441.05 L1.64 418.64 Z" class="st1"/>
				<path d="M1.64 418.64 C0.8 419.46 0 420.16 0.1 421.63 C0.28 424.41 0.08 427.21 0.18 429.99 C0.23 431.65 0.64 433.08
							 1.82 434.57 C3.17 436.27 3.88 438.68 2.84 441.05" class="st2"/>
			</g>
			<g id="shape130-317" v:mID="130" v:groupContext="shape" transform="translate(197.683,-334.099)">
				<title>工作表.130</title>
				<path d="M0 421.03 C1.62 422.51 0.19 424.61 1.32 426.51 C3.01 429.34 4.84 431.9 7.17 434.18 C9.19 436.17 9.82 438.44
							 8.37 441.05 L0 421.03 Z" class="st1"/>
				<path d="M0 421.03 C1.62 422.51 0.19 424.61 1.32 426.51 C3.01 429.34 4.84 431.9 7.17 434.18 C9.19 436.17 9.82 438.44
							 8.37 441.05" class="st3"/>
			</g>
			<g id="shape131-320" v:mID="131" v:groupContext="shape" transform="translate(136.722,-100.415)">
				<title>工作表.131</title>
				<path d="M2.69 427.3 C2.69 430.49 2.52 433.69 2.75 436.86 C2.91 439.15 2.17 440.47 0 441.05 L2.69 427.3 Z"
						class="st1"/>
				<path d="M2.69 427.3 C2.69 430.49 2.52 433.69 2.75 436.86 C2.91 439.15 2.17 440.47 0 441.05" class="st2"/>
			</g>
			<g id="shape132-323" v:mID="132" v:groupContext="shape" transform="translate(183.04,-294.002)">
				<title>工作表.132</title>
				<path d="M11.65 428.74 C12.82 432.24 12.54 432.59 9.9 434.77 C7.59 436.68 4.98 438.18 2.72 440.13 C1.86 440.86 1.01
							 441.05 0 441 L11.65 428.74 Z" class="st1"/>
				<path d="M11.65 428.74 C12.82 432.24 12.54 432.59 9.9 434.77 C7.59 436.68 4.98 438.18 2.72 440.13 C1.86 440.86 1.01
							 441.05 0 441" class="st3"/>
			</g>
			<g id="shape133-326" v:mID="133" v:groupContext="shape" transform="translate(162.122,-311.388)">
				<title>工作表.133</title>
				<path d="M9.86 441.05 C6.61 439.73 3.32 439.73 0 440.75 L9.86 441.05 Z" class="st1"/>
				<path d="M9.86 441.05 C6.61 439.73 3.32 439.73 0 440.75" class="st2"/>
			</g>
			<g id="shape134-329" v:mID="134" v:groupContext="shape" transform="translate(216.21,-128.804)">
				<title>工作表.134</title>
				<path d="M0 433.28 C1.02 435.81 0.45 438.46 0.6 441.05 L0 433.28 Z" class="st1"/>
				<path d="M0 433.28 C1.02 435.81 0.45 438.46 0.6 441.05" class="st3"/>
			</g>
			<g id="shape135-332" v:mID="135" v:groupContext="shape" transform="translate(346.2,-347.546)">
				<title>工作表.135</title>
				<path d="M0.9 433.88 C0.03 436.2 1.3 438.78 0 441.05 L0.9 433.88 Z" class="st1"/>
				<path d="M0.9 433.88 C0.03 436.2 1.3 438.78 0 441.05" class="st2"/>
			</g>
			<g id="shape136-335" v:mID="136" v:groupContext="shape" transform="translate(168.995,-287.78)">
				<title>工作表.136</title>
				<path d="M0.3 434.48 C0.2 436.67 0.1 438.86 0 441.05 L0.3 434.48 Z" class="st1"/>
				<path d="M0.3 434.48 C0.2 436.67 0.1 438.86 0 441.05" class="st2"/>
			</g>
			<g id="shape137-338" v:mID="137" v:groupContext="shape" transform="translate(343.81,-300.929)">
				<title>工作表.137</title>
				<path d="M0 428.8 C0 432.88 0 436.97 0 441.05 L0 428.8 Z" class="st1"/>
				<path d="M0 428.8 C0 432.88 0 436.97 0 441.05" class="st2"/>
			</g>
			<g id="shape138-341" v:mID="138" v:groupContext="shape" transform="translate(160.927,-65.7509)">
				<title>工作表.138</title>
				<path d="M4.78 440.15 C3.07 439.82 1.64 441.01 0 441.05 L4.78 440.15 Z" class="st1"/>
				<path d="M4.78 440.15 C3.07 439.82 1.64 441.01 0 441.05" class="st3"/>
			</g>
			<g id="shape139-344" v:mID="139" v:groupContext="shape" transform="translate(167.501,-85.587)">
				<title>工作表.139</title>
				<path d="M4.18 440.27 C2.65 441.05 1.36 440.13 0 439.67 L4.18 440.27 Z" class="st1"/>
				<path d="M4.18 440.27 C2.65 441.05 1.36 440.13 0 439.67" class="st3"/>
			</g>
			<g id="shape140-347" v:mID="140" v:groupContext="shape" transform="translate(263.724,-415.38)">
				<title>工作表.140</title>
				<path d="M3.88 441.05 C2.59 440.95 1.29 440.85 0 440.75 L3.88 441.05 Z" class="st1"/>
				<path d="M3.88 441.05 C2.59 440.95 1.29 440.85 0 440.75" class="st4"/>
			</g>
			<g id="shape141-350" v:mID="141" v:groupContext="shape" transform="translate(216.21,-164.065)">
				<title>工作表.141</title>
				<path d="M2.69 437.76 C2.27 439.25 0.17 439.36 0 441.05 L2.69 437.76 Z" class="st1"/>
				<path d="M2.69 437.76 C2.27 439.25 0.17 439.36 0 441.05" class="st3"/>
			</g>
			<g id="shape142-353" v:mID="142" v:groupContext="shape" transform="translate(136.423,-113.814)">
				<title>工作表.142</title>
				<path d="M3.59 439.81 C2.67 441.05 0.92 439.77 0 441 L3.59 439.81 Z" class="st1"/>
				<path d="M3.59 439.81 C2.67 441.05 0.92 439.77 0 441" class="st4"/>
			</g>
		</g>
	</g>
</svg>
